<svg width="350" height="313" viewBox="0 0 350 313" fill="none" xmlns="http://www.w3.org/2000/svg">
<g clip-path="url(#clip0_32_229)">
<path d="M49.7096 82.9388C38.4516 93.9894 39.9132 114.006 50.2667 125.912C60.6201 137.817 77.4362 142.408 93.1728 141.563C108.909 140.718 123.961 135.152 137.938 131.851L135.196 87.4318C104.883 87.737 74.5701 88.0423 49.7096 82.9388Z" fill="#F9A620"/>
<path d="M346.721 172.89C344.497 161.903 342.981 150.79 340.764 139.802C337.712 124.171 337.402 104.905 334.943 86.417C332.833 72.3711 329.847 58.4107 324.795 45.1086C321.819 36.6853 318.209 28.3997 312.846 21.2049C305.761 12.0201 296.486 3.4174 284.918 0.735956C275.996 -1.04065 266.959 0.805061 258.086 2.01458C241.11 4.68615 223.313 6.84252 203.766 7.31295C186.479 8.06435 169.173 7.82903 151.877 8.00276C130.775 8.5235 109.658 8.51749 88.5661 9.36935C79.0714 9.76263 69.6224 11.3828 61.5564 12.2522C52.2307 13.1735 42.8494 13.0172 33.5004 13.4961C31.5721 13.6611 29.6461 13.8635 27.7286 14.1251C29.9304 14.1697 32.1348 14.2399 34.3307 14.416C13.8484 17.2031 5.43717 20.2147 2.57647 44.3252C1.79722 52.9957 2.26252 61.7122 2.5084 70.3977C2.77099 77.753 2.67673 85.117 3.01465 92.4696C4.13404 111.101 5.69095 129.756 4.31465 148.421C4.00227 155.553 3.89854 162.7 3.07422 169.798C2.1506 178.914 0.68227 187.977 0.304308 197.142C0.197763 201.774 -0.463906 206.497 0.58171 211.062C3.14326 219.212 12.2792 221.321 19.5232 223.497C28.2506 226.19 36.9966 228.987 46.021 230.502C52.9346 231.496 59.9298 231.797 66.903 231.4C83.3494 230.63 99.8711 230.837 116.177 228.256C125.909 226.849 138.685 226.101 146.996 227.071C145.208 240.426 146.348 253.902 147.611 267.262C148.181 270.92 148.207 274.75 148.69 278.46C146.625 284.32 144.715 290.236 142.636 296.091C141.717 298.816 140.797 301.542 139.902 304.275C139.113 306.378 138.623 308.959 140.346 310.74C142.458 312.969 145.88 312.695 148.706 312.939C153.26 313.094 157.819 312.982 162.359 312.603C168.582 312.123 177.506 310.34 180.345 310.052C179.986 310.101 179.627 310.149 179.269 310.197C185.783 309.362 192.365 309.258 198.892 308.532C207.529 307.46 216.211 306.826 224.86 305.858C228.528 305.218 235.069 305.913 234.681 300.513C234.18 290.968 225.941 284.657 219.643 278.481C217.59 276.475 215.438 274.569 213.46 272.489C214.38 268.06 214.833 263.546 214.814 259.022C214.87 249.164 213.978 239.333 213.143 229.52C213.131 229.401 213.111 229.284 213.098 229.165C216.156 228.706 219.212 228.239 222.267 227.806C234.781 225.506 252.818 226.044 268.509 225.473C289.676 224.189 324.675 228.893 340.455 213.406C345.657 208.904 349.768 202.841 349.937 195.756C350.444 188.02 347.773 180.498 346.721 172.89ZM147.225 227.102C148.318 227.236 149.339 227.396 150.254 227.593C161.276 229.651 172.288 232.102 183.562 232.037C193.36 232.036 203.07 230.67 212.753 229.217C211.529 242.522 211.152 255.65 208.669 267.16C207.185 273.942 205.149 278.325 201.149 281.338C199.91 282.28 196.518 282.255 191.447 282.377C183.649 282.53 175.866 283.133 168.136 284.181C161.758 284.95 158.631 285.024 157.226 283.569C155.651 280.969 156.274 282.041 155.42 279.608C154.352 275.05 153.779 270.383 152.702 265.821C149.988 252.104 147.477 240.465 147.225 227.102ZM213.536 273.294C219.142 282.069 229.152 291.436 229.497 299.771C223.554 300.053 217.594 300.004 211.647 300.21C206.36 300.261 201.093 300.738 195.815 300.993C190.164 301.279 184.485 301.284 178.879 302.132C166.191 304.338 155.823 307.074 144.671 306.759C144.763 306.472 144.824 306.175 144.853 305.874C146.598 297.935 147.969 289.926 149.317 281.914C149.713 283.637 150.337 285.299 151.172 286.857C154.725 293.044 162.779 292.267 168.883 291.683C176.199 290.887 183.532 290.314 190.871 289.797C196.173 289.291 202.344 289.743 206.374 285.631C209.819 282.141 212.232 277.763 213.345 272.982C213.41 273.086 213.47 273.192 213.536 273.294V273.294ZM342.661 192.542C342.66 193.378 342.643 194.214 342.587 195.048C342.568 195.596 342.521 196.144 342.444 196.688C341.297 202.084 340.759 202.558 336.639 206.926C333.173 210.108 333.49 210.25 329.708 212.342C318.446 218.063 302.147 217.849 285.821 217.966C274.075 217.996 262.336 218.43 250.592 218.586C241.461 218.657 232.307 218.799 223.26 220.166C207.009 222.3 194.554 225.355 177.181 224.339C168.024 224.036 160.039 221.524 149.148 219.963C134.586 217.874 119.969 220.511 105.513 222.235C94.3011 223.482 82.9995 223.237 71.7499 223.91C57.2579 224.702 47.2548 224.3 34.1044 220.342C28.3218 218.721 22.6042 216.877 16.8466 215.17C10.7617 213.125 9.42388 212.728 7.40831 209.179C6.25773 204.019 8.64053 182.042 10.1136 170.319C11.1185 161.684 11.1122 152.984 11.586 144.313C12.5235 129.168 11.5012 114.018 10.5269 98.9024C9.80468 88.0209 9.94526 77.0994 8.98445 66.2307C8.23168 52.3391 5.16956 35.2653 13.5594 23.9519C19.6032 18.2853 27.9416 16.8479 35.6941 14.5384C35.7707 14.5463 35.8473 14.5507 35.9239 14.559C44.4495 15.4488 52.9765 16.4791 61.5564 16.6241C69.1758 16.6982 76.7851 16.0273 84.4051 16.0795C96.7926 16.1865 109.177 16.6844 121.567 16.4852C136.026 16.2803 150.478 15.66 164.941 15.658C187.555 15.5295 210.234 15.5148 232.758 13.2637C249.444 11.7302 268.963 7.22196 280.606 8.10722C294.525 9.89677 307.394 24.4056 313.864 39.888C314.845 42.4445 320.382 56.6575 322.186 63.345C324.503 72.1085 326.316 80.9982 327.615 89.9702C329.63 106.194 330.532 130.037 334.996 148.663C337.15 160.271 339.249 171.89 341.294 183.521C341.805 188.057 342.799 189.624 342.661 192.542Z" fill="#F6F0ED"/>
<path d="M26.2015 27.0049C19.3938 27.174 19.4118 37.1682 26.2018 37.3557C33.0095 37.1867 32.9919 27.1925 26.2015 27.0049Z" fill="#F6F0ED"/>
<path d="M285.437 40.3642C271.967 36.9352 257.909 38.2975 244.153 38.1413C219.294 38.2991 194.534 40.4502 169.91 43.7784C154.106 45.6661 138.194 46.9753 122.269 46.3862C109.559 46.0591 96.8384 45.1633 84.1253 45.8178C62.9388 47.0527 41.6971 48.9865 20.8848 53.2586C43.9308 51.7207 67.0739 52.7494 90.1414 53.3105C107.255 54.3143 124.386 55.8168 141.543 55.1393C157.7 54.4257 173.723 52.2369 189.779 50.4275C206.91 48.5182 224.106 47.2893 241.24 45.4051C256.269 44.3309 271.978 40.6327 286.723 42.4648C290.103 42.9801 293.412 43.8782 296.792 44.3973C292.987 43.1093 289.332 41.3762 285.437 40.3642Z" fill="#F6F0ED"/>
<path d="M42.4497 26.7856C35.642 26.9547 35.6597 36.9489 42.45 37.1365C49.2577 36.9674 49.24 26.9733 42.4497 26.7856Z" fill="#F6F0ED"/>
<path d="M59.3277 24.9065C52.52 25.0756 52.5376 35.0698 59.3277 35.2573C66.1356 35.0883 66.118 25.0941 59.3277 24.9065Z" fill="#F6F0ED"/>
<path d="M130.252 95.3409C129.544 90.6077 128.779 85.8776 127.635 81.2275C126.751 77.503 125.171 73.2865 121.194 72.0138C116.292 70.595 111.172 71.4409 106.239 72.2488C98.4066 73.453 94.8388 74.2075 87.4593 74.6766C71.2609 75.8762 47.8388 75.5732 35.2934 78.0359C45.4507 78.0132 55.6029 78.8352 65.7344 79.5085C75.6445 80.1139 85.6032 80.7784 95.5291 80.2024C101.665 79.8057 107.749 78.787 113.887 78.4529C117.084 78.5486 115.964 78.3042 118.846 79.0198C120.851 81.0326 123.555 99.668 124.275 107.644C124.815 113.734 123.481 118.603 122.699 119.706C122.11 119.848 121.379 119.964 121.047 120.012C121.167 119.996 121.35 119.972 121.614 119.939C121.163 119.991 120.712 120.053 120.263 120.118C120.468 120.086 120.621 120.064 120.746 120.047C120.607 120.063 120.427 120.082 120.182 120.106C113.248 120.739 106.275 120.832 99.3258 120.384C96.3696 120.218 93.4351 119.794 90.4805 119.616C86.848 119.598 83.2182 119.819 79.6145 120.277C66.6382 121.56 45.4072 128.125 35.8482 122.926C35.8038 122.895 35.7593 122.864 35.7152 122.834C35.2628 122.333 35.2427 122.507 35.0182 122.031C34.9782 121.934 34.9555 121.876 34.9366 121.826C33.6498 116.756 33.5947 110.878 32.9216 104.522C32.5068 98.3205 31.0126 92.2828 29.7744 86.2131C29.0793 82.5626 28.8574 78.8328 28.2928 74.9244C28.3688 78.7566 28.1617 82.5959 28.429 86.4223C28.9605 92.5726 29.7943 98.7126 29.5569 104.901C29.4983 109.565 29.3734 114.234 29.573 118.896C29.7161 121.637 29.9503 124.671 32.115 126.628C42.2291 135.388 69.1474 128.529 77.9117 127.717C84.4131 126.738 91.0205 126.69 97.5353 127.575C104.613 128.138 111.723 128.175 118.806 127.686C121.873 127.339 125.422 127.579 127.823 125.326C134.74 117.119 131.454 105.009 130.252 95.3409Z" fill="#F6F0ED"/>
<path d="M121.047 120.012C120.788 120.047 120.836 120.043 121.047 120.012V120.012Z" fill="#F6F0ED"/>
<path d="M120.745 120.047C121.125 120.004 121.113 119.997 120.745 120.047V120.047Z" fill="#F6F0ED"/>
<path d="M252.197 73.5281C238.841 73.9333 225.454 73.573 212.12 74.5125C201.915 75.2574 191.851 77.1988 181.868 79.3802C202.601 78.3143 223.565 79.2487 244.073 75.5587C247.404 74.9295 250.72 74.2225 254.038 73.5357C253.425 73.5311 252.811 73.526 252.197 73.5281Z" fill="#F6F0ED"/>
<path d="M254.244 95.1507C246.276 92.2194 237.573 93.7641 229.274 93.6542C221.85 93.7852 214.45 94.4089 207.039 94.8023C200.459 95.066 193.864 95.1892 187.341 96.1749C199.593 97.0483 211.805 99.1304 224.122 97.9941C230.097 97.6137 236.04 96.8558 241.952 95.9263C246.03 95.3151 248.896 94.7106 253.552 95.1712C253.901 95.171 255.133 95.4527 254.244 95.1507Z" fill="#F6F0ED"/>
<path d="M190.419 118.454C199.044 118.758 207.674 119.471 216.307 119.078C229.692 118.188 242.952 115.944 255.886 112.381C231.882 112.666 213.424 115.15 190.419 118.454Z" fill="#F6F0ED"/>
<path d="M264.181 144.884C245.7 144.435 227.361 141.104 208.837 141.926C189.582 142.006 175.058 146.155 157.537 146.615C142.256 147.402 126.944 146.051 111.672 147.073C100.857 147.929 90.1124 149.521 79.3329 150.732C66.2116 152.142 53.2479 154.761 40.6064 158.555C51.7454 156.715 62.997 155.643 74.2823 155.345C86.4445 155.209 98.5931 154.614 110.749 154.285C127.146 154.33 143.536 155.746 159.935 154.834C179.827 153.915 194.197 150.193 212.972 149.17C230.274 147.469 247.744 148.645 265.003 146.405C268.263 145.991 271.519 145.55 274.771 145.082C271.241 145.027 267.711 144.961 264.181 144.884Z" fill="#F6F0ED"/>
<path d="M256.948 162.95C241.217 162.99 222.907 166.59 210.131 168.089C196.205 169.773 182.17 170.174 168.155 170.358C145.287 170.725 122.487 172.538 99.6648 173.866C90.6587 174.257 81.6451 174.455 72.6412 174.901C65.4634 175.314 58.303 176.174 51.5518 178.777C58.7418 176.988 66.1279 177.025 73.4772 177.479C82.9665 178.056 92.4432 178.89 101.947 179.201C126.226 180.003 150.506 178.765 174.785 178.56C188.227 178.332 201.618 176.823 214.776 174.054C229.757 170.705 244.485 166.202 259.708 163.999C262.035 163.615 264.363 163.233 266.699 162.91C263.449 162.87 260.198 162.884 256.948 162.95Z" fill="#F6F0ED"/>
<path d="M257.704 188.097C242.637 189.022 227.533 189.123 212.476 190.182C193.129 192.177 173.69 192.413 154.28 193.393C139.243 194.084 124.206 194.78 109.157 195.158C95.8165 196.041 82.2433 196.623 69.3379 200.37C76.4287 199.337 83.6032 198.998 90.7596 199.36C99.5753 199.483 108.375 199.935 117.158 200.716C129.61 201.742 142.114 201.995 154.603 201.943C174.712 201.759 194.81 200.453 214.583 196.641C229.006 194.398 243.47 192.475 257.699 189.146C259.688 188.758 261.698 188.492 263.719 188.349C261.721 188.143 259.712 188.058 257.704 188.097V188.097Z" fill="#F6F0ED"/>
</g>
<defs>
<clipPath id="clip0_32_229">
<rect width="350" height="313" fill="white"/>
</clipPath>
</defs>
</svg>
