<svg width="493" height="221" viewBox="0 0 493 221" fill="none" xmlns="http://www.w3.org/2000/svg">
<g clip-path="url(#clip0_32_196)">
<path d="M82.7897 71.1606C79.1248 59.147 85.8131 44.9028 97.4086 40.0264C109.004 35.15 123.89 40.3216 129.945 51.33C130.178 39.6208 141.668 29.3905 153.351 30.4897C165.034 31.5889 174.406 43.7821 172.443 55.3286C174.997 46.2506 186.289 40.7849 195.013 44.4042C203.737 48.0234 207.82 59.8677 203.173 68.0776C187.963 94.7703 164.383 115.733 136.064 127.739C127.061 131.525 116.974 123.85 112.876 114.998C108.778 106.146 108.188 95.9897 104.071 87.1464C99.9542 78.3032 89.8211 70.668 82.7897 71.1606Z" fill="#F9A620"/>
<path d="M290.754 201.7C299.344 192.56 300.709 177.471 293.896 166.944C304.65 164.326 316.472 174.301 315.675 185.32C314.878 196.339 301.743 204.515 290.754 201.7Z" fill="#F9A620"/>
<path d="M373.911 111.627C385.812 105.349 398.427 98.9005 411.878 99.4109C425.33 99.9214 439.405 110.245 438.871 123.668C438.546 131.83 443.268 139.271 448.166 145.815C453.063 152.359 458.495 158.992 459.983 167.023C461.47 175.055 457.188 184.849 449.102 186.107C440.021 187.52 432.915 177.735 431.602 168.657C430.288 159.579 432.291 150.113 429.853 141.269C427.415 132.425 417.308 124.464 409.378 129.1C405.547 131.276 401.206 132.396 396.798 132.346C392.391 132.296 388.076 131.077 384.296 128.816C376.819 124.213 372.217 115.321 373.911 111.627Z" fill="#F9A620"/>
<path d="M28.8285 23.7662C21.6832 30.4642 25.8541 43.936 34.8672 47.7833C43.8803 51.6305 54.7102 47.6371 61.6386 40.7158C68.567 33.7945 72.4458 24.482 76.1568 15.4266C76.8986 13.6167 77.0386 11.617 76.5563 9.72173C76.074 7.82646 74.9949 6.13575 73.4777 4.89842C71.9605 3.66109 70.0855 2.94248 68.1284 2.84836C66.1714 2.75423 64.2358 3.28956 62.6065 4.37556C49.8028 12.9095 35.021 17.9615 28.8285 23.7662Z" fill="#F9A620"/>
<path d="M120.928 144.205C119.551 138.343 116.645 132.967 113.293 128.005C107.688 120.178 100.945 113.233 94.4655 106.134C97.5342 110.375 100.555 114.65 103.649 118.874C107.35 123.856 110.958 128.93 113.774 134.475C117.191 140.747 119.028 147.755 119.128 154.894C119.218 156.839 119.207 158.728 119.109 160.585C117.269 158.846 115.413 157.122 113.482 155.483C106.717 149.907 98.9714 145.688 91.6388 140.923C81.548 134.413 70.717 128.374 58.6367 126.754C54.4979 126.178 50.3192 125.936 46.1415 126.032C42.8479 126.098 39.5019 126.409 36.4027 127.59C34.1232 128.474 31.9773 129.668 30.0259 131.139C27.2189 133.169 25.7535 134.223 23.4967 136.112C13.4925 144.272 6.59186 155.352 0.477539 166.548C5.0335 160.446 8.96054 154.865 14.039 149.234C18.5673 144.297 23.5526 139.798 28.9285 135.796C30.86 134.314 32.8714 132.939 34.9537 131.677C35.449 131.419 35.9346 131.14 36.4518 130.926C36.5955 130.874 36.7743 130.794 36.8949 130.737C42.2877 128.692 47.0601 129.072 53.2897 129.311C66.9767 130.07 77.2085 135.489 89.625 143.284C96.5794 147.544 103.967 151.049 110.948 155.262C113.739 157.034 116.403 158.993 119.09 160.918C118.684 167.791 117.001 174.215 114.097 181.234C114.169 181.026 113.167 183.149 112.922 183.662C111.931 185.577 110.841 187.432 109.667 189.239C108.033 191.588 106.256 193.835 104.346 195.968C99.5443 201.704 93.6089 206.391 86.9105 209.735C83.9095 209.505 80.897 209.409 77.8899 209.32C75.3471 209.275 72.7607 209.081 70.2634 209.672C68.1443 210.112 66.2626 211.216 64.3099 212.097C63.1906 212.541 60.642 212.99 59.7152 212.164C56.4065 209.981 53.6078 205.561 50.7316 201.406C49.3997 199.636 48.5623 197.348 46.697 196.06C43.653 194.648 42.8756 198.881 42.2391 200.949C42.1429 201.274 42.0244 201.592 41.9002 201.908C41.8316 202.045 41.7551 202.177 41.6712 202.305L41.652 202.326C41.6279 202.34 41.6048 202.355 41.5802 202.368C41.5541 202.377 41.53 202.386 41.4935 202.399C40.7924 202.589 40.0571 202.618 39.3431 202.484C38.5029 202.299 37.5879 202.07 36.7935 202.526C34.7503 203.734 35.282 205.512 34.6667 206.735C33.1077 210.157 31.1863 212.826 27.8734 214.826C23.9437 217.379 19.6476 218.328 15.2175 220.477C13.7832 221.069 16.1966 220.263 16.7192 220.154C21.0517 218.911 25.6301 218.344 29.5688 216.011C33.2525 214.055 37.0438 209.482 37.9147 205.372L37.9189 205.359C41.0403 206.228 44.4532 205.965 45.264 202.21C45.4562 201.542 45.6759 200.812 45.887 200.173C47.5304 202.699 50.19 207.013 52.2774 209.564C54.7914 212.835 58.2912 216.908 62.895 215.664C65.8061 215.201 68.7037 212.636 70.5799 212.182C73.3678 211.259 75.2706 211.355 78.4502 211.019C82.672 210.66 86.8963 210.239 91.1351 210.16C89.8342 209.991 88.5295 209.863 87.2223 209.759C93.9242 207.364 100.024 203.543 105.1 198.561C110.017 193.885 114.324 188.495 117.037 182.242C119.482 176.597 121.151 170.648 122 164.557C122.787 157.761 122.425 150.881 120.928 144.205V144.205Z" fill="#F6F0ED"/>
<path d="M170.72 124.76C165.442 129.295 159.669 133.515 155.549 139.188C153.113 143.332 151.419 147.867 150.543 152.592C149.006 162.248 149.161 172.097 151.001 181.701C152.256 188.626 154.6 194.996 160.531 199.263C163.29 201.569 166.857 202.385 170.232 203.37C166.709 201.842 163.031 200.363 160.498 197.347C155.985 192.99 154.701 186.684 153.881 180.712C153.017 174.975 152.343 164.626 153.17 157.308C153.647 151.67 155.349 145.232 158.74 140.148C161.146 136.979 167.019 131.894 170.982 128.215C178.509 121.465 185.166 113.837 191.921 106.336C184.748 112.357 177.971 118.832 170.72 124.76Z" fill="#F6F0ED"/>
<path d="M79.1173 112.527C76.7157 108.036 75.3556 103.54 75.5593 98.2188C75.581 95.2806 76.7354 92.6952 78.6626 90.0327C81.088 87.0107 83.6677 84.1154 86.3914 81.3582C83.4896 83.3914 80.7307 85.6205 78.1339 88.0298C69.835 95.113 71.7126 107.947 78.0039 115.735C81.7793 120.913 87.8159 123.297 93.6869 125.278C87.4655 121.788 82.4668 118.91 79.1173 112.527Z" fill="#F6F0ED"/>
<path d="M107.989 34.8746C104.328 33.1029 100.45 31.8173 96.4537 31.0508C90.3393 29.9771 83.9561 31.751 78.7388 34.9653C73.6134 38.1382 70.8143 43.4807 69.2899 49.1449C68.4626 52.3988 68.3348 55.7879 68.1834 59.128C68.0576 65.3264 69.5049 71.3838 71.1485 77.3196C70.6574 72.1696 70.0448 66.997 70.4468 61.8194C70.7283 58.1662 71.2946 54.5406 72.1404 50.9752C72.9151 48.3056 73.9977 45.7348 75.3665 43.3144C78.5153 37.9135 85.2095 33.9262 92.6276 32.8673C97.7085 32.3876 102.45 33.4921 107.42 34.7483C107.788 34.8088 108.483 35.1215 107.989 34.8746Z" fill="#F6F0ED"/>
<path d="M129.036 50.8171C126.831 48.6172 124.523 46.4175 121.666 45.0877C117.353 42.93 112.173 42.6578 108.121 45.5292C102.387 48.6573 98.0087 53.6262 94.5371 59.07C96.9077 56.6812 99.4179 54.4346 102.055 52.3421C105.033 50.2192 108.211 48.3891 111.543 46.8772C115.907 45.3785 120.451 46.7382 125.187 49.8278C127.772 51.5292 130.259 53.376 132.635 55.3592C132.911 55.5912 133.177 55.8366 133.447 56.0754C132.134 54.1971 130.658 52.4375 129.036 50.8171V50.8171Z" fill="#F6F0ED"/>
<path d="M151.117 29.4866C147.375 20.2267 141.455 12.9601 130.788 12.416C123.121 12.0371 115.683 15.1332 109.403 19.314C107.05 20.9881 104.858 22.8747 102.617 24.6927C105.759 22.9405 108.78 20.9564 112.07 19.4844C115.677 17.8851 119.456 16.7023 123.333 15.959C134.063 14.1399 142.098 18.1118 147.889 28.2873C150.675 32.9394 153.223 37.729 155.525 42.6378C154.368 38.1559 152.895 33.7612 151.117 29.4866V29.4866Z" fill="#F6F0ED"/>
<path d="M161.952 58.9591C158.928 55.0182 153.554 52.1909 148.659 54.3008C145.687 55.3712 143.353 57.6008 140.889 59.4944C143.543 58.2807 146.014 56.5851 148.862 55.8464C153.253 54.3722 158.112 56.9176 161.054 59.5185C162.195 60.5265 163.241 61.6357 164.181 62.8323C163.6 61.4547 162.852 60.1538 161.952 58.9591Z" fill="#F6F0ED"/>
<path d="M136.893 73.3876C133.042 71.5793 128.955 69.9609 124.629 70.0492C119.257 70.1535 114.209 72.8924 110.441 76.5973C107.712 79.1835 105.387 82.1649 103.546 85.4414C101.89 88.5191 100.864 91.8832 99.6406 95.1449C101.592 91.9162 103.299 88.527 105.607 85.5285C108.036 82.656 110.759 80.0437 113.731 77.734C120.563 72.8992 126.037 71.7572 135.452 74.9217C139.187 76.0424 142.434 77.13 145.698 79.0778C143.983 77.1218 139.9 74.7172 136.893 73.3876Z" fill="#F6F0ED"/>
<path d="M147.675 93.5239C144.243 91.4336 140.19 90.6005 136.21 91.1676C130.642 92.014 126.527 97.5128 123.028 101.511C126.604 98.7857 129.969 95.7533 134.003 93.9783C137.12 92.896 140.549 92.9231 143.824 93.5298C146.388 94.034 148.834 95.0144 151.035 96.42C151.102 96.4594 151.168 96.4985 151.234 96.5383C150.169 95.3991 148.974 94.3875 147.675 93.5239V93.5239Z" fill="#F6F0ED"/>
<path d="M202.174 40.326C201.53 34.5822 197.815 29.7149 193.649 25.9279C191.933 24.3218 190.009 22.9532 187.927 21.8588C187.452 21.5889 185.383 20.6756 184.98 20.4968C182.219 19.3234 179.413 18.1727 176.419 17.766C173.237 17.1805 170.001 17.6491 166.898 18.4461C160.956 19.7681 155.576 22.7114 150.244 25.5415C158.325 22.7134 167.779 19.6684 174.581 20.7599C178.171 21.4424 180.273 22.4578 182.762 23.5885C185.092 24.5908 187.315 25.8236 189.399 27.2683C192.904 29.9175 198.386 34.8772 199.677 40.3896C200.952 45.5179 201.323 49.0973 201.559 54.5999C202.481 49.8997 202.688 45.0878 202.174 40.326V40.326Z" fill="#F6F0ED"/>
<path d="M184.98 20.4969C185.019 20.5133 185.058 20.5295 185.096 20.546C184.877 20.4509 184.867 20.4469 184.98 20.4969Z" fill="#F6F0ED"/>
<path d="M188.503 62.6634C186.622 60.9156 184.562 59.369 182.358 58.0491C180.227 56.9644 178.022 56.0292 175.76 55.2503C177.702 56.5136 179.73 57.6562 181.571 59.0674C183.662 60.8132 185.624 62.706 187.444 64.7314C188.71 66.1252 189.76 67.6995 190.561 69.4024C191.572 72.0021 191.876 74.8227 191.442 77.5777C191.01 80.2423 190.383 82.8718 189.568 85.4454C189.477 85.6898 189.419 85.8556 189.638 85.4748C190.759 83.6614 191.709 81.7479 192.476 79.7589C195.12 73.4872 193.695 67.1023 188.503 62.6634Z" fill="#F6F0ED"/>
<path d="M214.778 84.7696C214.04 81.4798 212.786 78.3271 211.063 75.4279C210.763 74.8893 211.061 75.5872 211.123 75.8431C212.405 80.2876 213.045 84.0872 212.648 88.7687C211.698 95.9521 208.078 103.511 203.546 110.772C201.98 113.258 200.702 115.634 198.744 117.557C195.708 120.253 191.895 121.413 188.092 122.732C193.442 122.088 199.325 121.042 202.928 116.652C207.779 110.977 212.246 104.671 214.115 97.3486C215.211 93.2604 215.76 88.9361 214.778 84.7696Z" fill="#F6F0ED"/>
<path d="M173.933 83.903C171.161 82.2456 167.789 81.9416 164.703 81.1394C167.339 82.6285 170.461 83.5878 172.848 85.3069C174.73 87.1933 175.856 89.7019 176.013 92.3597C176.062 94.1064 175.647 95.6095 175.269 97.4261C175.058 98.3681 174.807 99.3012 174.535 100.227C174.996 99.5202 175.42 98.7897 175.805 98.0385C176.659 96.2739 177.525 94.4394 177.719 92.4667C177.852 90.8376 177.575 89.2013 176.914 87.706C176.253 86.2106 175.228 84.9035 173.933 83.903V83.903Z" fill="#F6F0ED"/>
<path d="M288.455 205.651C288.134 205.56 287.814 205.467 287.492 205.379C285.959 204.926 284.404 204.568 282.842 204.245C283.559 202.957 284.184 201.619 284.711 200.242C285.283 198.151 285.575 195.993 285.58 193.825C285.299 191.259 284.158 188.872 283.236 186.486C283.047 186.03 282.854 185.575 282.657 185.122C282.826 185.974 282.994 186.827 283.162 187.681C283.509 189.883 284.241 192.077 284.159 194.32C283.984 196.194 283.915 198.084 283.632 199.945C283.306 201.369 282.874 202.766 282.459 204.167C280.299 203.729 278.126 203.348 275.973 202.879C269.266 201.493 265.197 198.643 258.809 196.53C253.672 194.732 248.178 194.895 242.822 194.469C239.894 194.294 236.858 194.038 234.009 194.889C231.71 195.785 229.327 196.446 226.895 196.863C226.151 196.94 225.402 196.973 224.654 196.961C224.306 196.968 223.096 196.841 222.834 196.819C219.584 196.302 216.399 195.437 213.334 194.238C210.063 193.07 206.295 190.748 202.919 192.807C198.288 196.216 194.746 200.461 190.762 201.65C189.524 201.996 189.119 201.883 187.198 201.789C185.607 201.734 184.014 201.758 182.423 201.827C177.133 202.157 171.9 203.102 166.829 204.643C173.45 203.672 180.17 203.586 186.813 204.387C193.838 206.488 200.596 199.491 204.7 196.025C206.199 194.525 210.756 197.466 215.464 198.985C218.781 200.11 222.24 201.007 225.764 201.011C228.058 200.88 230.325 200.445 232.506 199.719C233.41 199.433 234.278 199.052 235.166 198.724C235.843 198.472 236.552 198.317 237.272 198.262C240.193 198.066 243.115 198.455 246.03 198.606C249.57 198.793 252.951 198.893 255.175 199.358C260.083 200.196 264.571 202.475 269.372 203.698C273.534 204.943 277.863 204.983 282.173 205.164C282.111 205.384 282.046 205.602 281.986 205.822C282.105 205.606 282.223 205.389 282.341 205.171C283.891 205.238 285.438 205.325 286.974 205.496C287.468 205.545 287.962 205.597 288.455 205.651Z" fill="#F6F0ED"/>
<path d="M62.2513 15.2884C61.3362 7.39002 55.2788 -0.054286 46.7833 0.445379C42.3045 0.550606 38.0822 1.97599 34.0476 3.84496C32.9044 4.01884 31.7773 4.28538 30.6775 4.64195C28.1036 5.55822 25.7089 6.91416 23.6004 8.64919C25.8165 7.52536 28.0924 6.52325 30.4181 5.64736C29.4926 6.133 28.5754 6.62747 27.6678 7.1219C31.8884 5.38237 36.2576 4.02642 40.7223 3.07058C42.1732 2.79605 43.6483 2.6701 45.1248 2.69463C47.0153 2.73141 48.4149 2.71102 50.1252 3.32563C55.5522 5.17575 58.0796 10.8085 58.8129 14.8617C59.4504 18.1724 57.9178 23.0978 57.1363 25.0548C55.2834 28.9462 53.7174 31.6551 51.0416 34.05C49.6675 35.2674 47.0084 36.3539 43.9937 37.3093C39.5911 38.828 36.5493 38.9682 31.541 38.7522C27.5063 38.4615 21.1015 35.2781 18.4092 29.971C17.0023 27.4083 16.809 24.286 17.2826 21.3497C17.5971 18.6089 18.1189 15.8958 18.8436 13.2335C17.3041 16.8726 16.2354 20.6926 15.6635 24.6013C15.4051 28.1086 16.4888 31.5832 18.6959 34.3246C20.2005 36.3474 22.0917 38.0528 24.2602 39.3423C26.4288 40.6319 28.8317 41.4799 31.3304 41.8376C38.2212 42.6717 45.2491 41.0017 51.3693 37.8411C57.8611 33.834 62.9919 22.8327 62.2513 15.2884Z" fill="#F6F0ED"/>
<path d="M492.069 213.04C491.938 212.986 491.807 212.931 491.676 212.877C489.298 211.845 486.847 210.99 484.342 210.319C482.827 206.238 481.197 202.19 480.088 197.973C478.06 190.243 476.557 182.376 474.272 174.714C471.275 165.067 467.527 155.687 464.003 146.228C459.45 132.647 454.997 118.904 447.634 106.524C444.893 101.748 441.817 97.1707 438.43 92.8267C434.487 87.4654 430.336 83.789 423.515 82.7838C419.525 82.0813 415.546 83.1652 411.67 84.0321C406.019 85.3908 400.401 86.8922 394.814 88.4942C383.666 91.6994 372.723 95.5754 362.044 100.101C356.128 102.625 350.352 105.457 344.555 108.24C341.895 105.365 339.298 102.435 336.859 99.3738C334.455 96.4777 329.988 89.1939 326.903 84.8244C323.925 80.5512 320.735 76.3691 316.843 72.8801C311.689 68.3395 305.396 64.8862 298.589 63.6649C288.541 61.8766 281.471 63.1047 271.974 66.5105C263.101 69.5881 254.204 72.6756 245.798 76.8991C235.821 81.9073 226.336 87.8253 216.344 92.8068C226.762 89.1583 236.646 84.2298 246.679 79.6702C254.212 76.2242 261.926 73.1861 269.787 70.5691C274.321 68.8661 281.666 66.6535 284.954 66.2739C299.876 64.7167 311.694 69.9135 320.876 81.9461C324.61 86.6613 329.977 95.8187 334.62 101.785C339.982 108.586 346.189 114.67 352.006 121.076C356.716 125.974 359.607 132.248 363.011 139.086C367.261 147.579 369.663 155.451 373.187 164.889C375.466 170.955 378.512 176.688 381.05 182.644C383.696 188.449 385.802 194.544 388.931 200.112C388.642 200.056 388.352 200.002 388.067 199.944C384.087 199.184 380.035 197.937 375.952 198.474C374.003 198.706 372.242 199.664 370.318 200.013C370.036 200.073 369.248 200.206 369.058 200.245C365.047 200.727 361.029 199.826 357.006 200.041C354 199.939 351.412 201.04 348.562 201.708C345.136 202.4 341.673 202.889 338.189 203.173C329.22 203.782 324.765 201.942 316 201.286C307.283 200.809 298.584 202.309 290.231 204.721C298.614 203.496 307.142 203.037 315.573 204.051C319.225 204.455 324.816 205.996 329.669 206.46C334.321 206.964 339.021 206.824 343.635 206.044C346.13 205.702 348.604 205.215 351.042 204.587C353.775 203.7 354.351 203.452 356.821 203.424C360.06 203.277 363.27 203.81 366.503 203.849C369.514 203.777 372.49 203.186 375.299 202.1C381.264 200.591 390.001 205.329 398.393 204.395C401.329 204.071 402.227 203.595 404.573 203.684C407.853 203.717 411.404 204.839 415.678 205.659C419.547 206.448 423.459 207.005 427.395 207.327C429.882 207.558 432.386 207.394 434.868 207.669C438.222 208.117 441.28 209.686 444.482 210.694C447.404 211.678 450.509 211.999 453.57 211.632C456.891 211.167 459.284 210.365 461.807 210.328C465.666 210.16 468.019 210.944 472.239 211.536C475.846 212.115 479.312 211.619 482.907 211.386C483.523 211.403 484.136 211.457 484.747 211.529C484.778 211.578 484.812 211.632 484.843 211.68C484.825 211.631 484.807 211.582 484.789 211.533C487.076 211.872 489.343 212.334 491.58 212.917C491.744 212.958 491.907 212.999 492.069 213.04ZM483.438 210.126C481.233 209.82 477.016 210.027 475.639 209.712C472.34 209.29 469.187 208.19 465.924 207.598C463.977 207.274 461.998 207.177 460.029 207.307C457.876 207.473 455.778 208 453.643 208.289C453.193 208.32 451.557 208.448 451.31 208.407C450.359 208.417 449.41 208.34 448.475 208.175C446.5 207.777 444.565 207.199 442.696 206.448C439.758 205.267 436.74 204.254 433.552 204.089C429.763 204.047 425.982 203.754 422.233 203.211C420.329 202.974 415.111 201.954 411.7 201.172C407.679 200.181 403.489 199.703 399.418 200.69C396.576 201.245 392.838 200.847 389.276 200.179C387.275 194.97 386.045 189.49 384.236 184.211C381.983 176.908 378.732 169.977 376.104 162.81C374.333 158.105 372.758 153.327 370.952 148.635C369.12 143.923 366.969 139.339 364.711 134.816C362.959 131.414 361.262 127.971 359.2 124.743C357.195 121.903 354.977 119.219 352.566 116.714C349.956 113.956 347.315 111.216 344.73 108.428C355.276 105.006 365.749 101.364 376.339 98.0794C384.607 95.359 392.87 92.6072 401.299 90.4162C405.686 89.2621 410.07 88.0914 414.502 87.1243C418.954 86.1676 421.112 85.7691 425.008 86.8875C430.776 88.2118 434.13 93.2478 438.048 98.5793C443.506 106.295 448.11 114.579 451.779 123.286C453.886 128.285 457.424 138.731 459.681 145.669C462.385 153.533 465.755 161.154 468.264 169.088C471.23 177.539 473.469 186.222 476.479 194.658C478.119 199.762 481.392 206.06 483.937 210.232C483.77 210.197 483.605 210.157 483.438 210.126V210.126Z" fill="#F6F0ED"/>
<path d="M284.848 81.0909C279.817 82.633 274.95 84.6604 269.989 86.4061C257.474 90.7751 245.067 95.6851 233.636 102.45C244.032 98.3932 254.782 95.3026 265.08 90.9897C271.874 88.3105 278.261 84.772 284.696 81.353C285.059 81.1727 285.429 81.0068 285.803 80.8517C285.483 80.9269 285.162 80.9956 284.848 81.0909Z" fill="#F6F0ED"/>
<path d="M301.44 96.3047C296.06 98.5261 289.826 100.436 284.118 102.431C275.412 105.429 266.629 108.206 257.947 111.273C265.753 109.89 273.586 108.519 281.147 106.088C288.775 103.488 296.345 100.349 303.08 95.8829C303.481 95.6036 303.877 95.3179 304.269 95.0258C303.338 95.4785 302.395 95.9048 301.44 96.3047Z" fill="#F6F0ED"/>
<path d="M373.584 181.73C370.532 176.365 366.915 171.332 364.049 165.856C361.672 161.31 360.754 158.193 358.458 153.225C355.388 146.705 350.413 141.297 345.092 136.52C340.386 132.123 335.339 128.106 329.996 124.507C334.775 128.757 339.295 133.289 343.531 138.078C347.481 142.421 349.96 145.299 352.929 150.173C356.208 155.672 356.619 158.51 359.664 164.771C362.017 169.467 365.139 173.734 368.363 177.865C372.014 182.348 375.258 187.147 378.055 192.205C378.201 192.461 378.346 192.718 378.49 192.976C377.168 189.098 375.527 185.337 373.584 181.73V181.73Z" fill="#F6F0ED"/>
<path d="M358.917 184.524C355.312 178.813 352.09 172.868 348.437 167.185C345.869 163.11 343.305 158.987 340.045 155.417C337.257 152.296 334.11 149.513 330.67 147.125C327.731 145.317 324.703 143.658 321.598 142.153C324.468 144.344 327.046 146.173 329.575 148.319C332.206 150.707 334.628 153.315 336.815 156.114C339.093 158.795 341.757 163.196 344.314 167.033C348.328 172.897 352.449 178.731 357.136 184.082C358.648 185.733 360.219 187.331 361.827 188.889C360.84 187.445 359.87 185.99 358.917 184.524Z" fill="#F6F0ED"/>
<path d="M468.116 187.261C466.007 182.173 465.062 176.711 463.059 171.593C459.793 163.459 456.377 156.899 453.508 149.536C449.945 140.793 449.531 130.993 445.263 122.499C442.998 117.966 439.778 114.013 436.446 110.225C434.119 107.774 431.651 103.925 427.987 103.707C424.395 103.778 420.905 104.799 417.407 105.524C412.259 106.749 407.102 107.971 402.026 109.47C398.468 110.693 394.851 111.737 391.188 112.599C382.929 114.241 374.561 115.278 366.242 116.566C377.378 116.285 388.751 116.652 399.593 113.739C407.731 111.46 419.613 108.598 426.112 107.437C426.45 107.344 427.84 107.339 428.113 107.312C428.146 107.318 428.179 107.321 428.211 107.329C428.319 107.371 428.386 107.395 428.432 107.409C428.603 107.496 428.768 107.593 428.928 107.7C430.983 109.085 434.638 113.647 437.191 116.688C438.651 118.505 439.972 120.429 441.144 122.443C441.901 123.767 442.58 125.133 443.178 126.535C445.95 133.775 446.907 141.565 449.432 148.881C451.142 153.061 452.813 157.257 454.667 161.376C456.443 165.204 458.415 168.938 460.192 172.766C461.977 176.328 463.018 180.271 465.098 184.594C467.274 189.032 469.687 193.349 472.329 197.527C470.856 194.132 469.457 190.789 468.116 187.261Z" fill="#F6F0ED"/>
<path d="M107.91 162.128C102.526 159.386 97.3892 156.219 92.2904 152.991C81.3007 146.765 67.277 143.822 54.6878 143.985C47.3259 144.399 41.2268 149.002 35.2012 152.781C27.5981 157.74 20.2446 163.068 13.0684 168.622C20.4423 164.472 27.7972 160.287 35.1729 156.14C39.9193 153.531 45.7579 149.928 49.5289 148.546C57.9781 145.151 77.417 149.838 87.6392 153.685C90.5807 154.792 93.9333 156.674 97.5302 158.384C101.261 160.083 105.11 161.511 108.978 162.867C109.311 162.983 109.645 163.098 109.979 163.213C109.288 162.854 108.598 162.493 107.91 162.128Z" fill="#F6F0ED"/>
<path d="M304.035 185.356C302.642 182.463 300.749 179.839 298.443 177.602C297.694 176.936 296.866 176.167 295.801 176.182C295.484 176.19 295.174 176.282 294.904 176.449C294.634 176.615 294.413 176.85 294.263 177.129C294.113 177.408 294.04 177.722 294.051 178.039C294.062 178.355 294.156 178.663 294.325 178.932C296.601 182.278 298.087 184.242 298.641 187.918C298.827 189.773 298.767 191.646 298.464 193.486C297.154 197.201 294.591 200.535 292.479 203.918C295.292 200.859 298.462 197.875 300.281 194.092C301.377 190.855 301.474 187.364 300.559 184.072C301.243 184.957 301.889 185.866 302.473 186.758C304.874 190.151 305.575 192.939 304.341 196.977C304.29 197.213 303.991 197.962 304.265 197.431C305.3 195.722 305.89 193.781 305.981 191.787C306.042 189.496 305.032 187.363 304.035 185.356Z" fill="#F6F0ED"/>
<path d="M440.159 34.6286C436.058 34.9304 430.198 35.2819 427.549 34.6285C420.163 32.7736 413.864 28.4781 406.164 24.979C400.569 22.7559 394.596 20.2231 388.464 21.4014C384.544 22.1088 380.77 23.4663 377.3 25.4178C372.523 27.9978 370.401 29.5352 365.749 29.2789C363.739 29.1782 361.096 27.9317 358.793 26.9388C355.903 25.6362 352.962 24.4366 349.955 23.4272C344.866 21.8646 337.275 19.8145 333.153 24.2629C330.1 27.2859 328.186 31.1792 326.15 34.9049C324.136 38.5645 321.809 42.0383 319.572 45.5632C322.456 42.337 325.173 38.9656 327.712 35.4623C330.357 31.7193 332.001 28.7627 335.426 25.9567C339.141 22.979 347.856 26.247 354.279 28.7101C356.365 29.497 360.384 31.6163 363.877 32.4529C365.648 32.7544 367.456 32.7709 369.232 32.5018C373.31 31.9154 376.737 29.3747 380.364 27.6056C384.066 25.8245 388.388 24.3096 392.973 24.5318C397.232 24.9862 404.176 27.6203 408.424 29.9188C414.685 33.1729 420.973 37.0101 428.08 37.9767C432.279 38.2717 436.457 37.466 440.588 36.8116C446.472 35.8307 452.315 34.6262 458.14 33.343C452.146 33.7729 446.155 34.2383 440.159 34.6286Z" fill="#F6F0ED"/>
<path d="M270.949 132.056C264.59 133.489 258.387 136.4 253.602 140.865C253.43 141.039 252.995 141.519 252.794 141.748C249.523 138.943 246.095 136.326 242.526 133.91C245.311 136.929 248.23 139.82 251.02 142.833C253.111 145.582 254.536 142.858 256.331 141.497C258.021 140.147 260.209 138.587 262.453 137.062C265.267 135.196 268.224 133.556 271.298 132.156C271.54 132.051 271.782 131.947 272.024 131.841C271.665 131.912 271.305 131.975 270.949 132.056Z" fill="#F6F0ED"/>
<path d="M366.278 69.0306C365.39 69.4803 364.071 70.388 363.378 70.8381C363.066 70.4551 362.75 70.0345 362.339 69.5579C360.077 66.8957 357.663 64.3667 355.236 61.8554C357.258 65.1212 359.432 68.2913 361.43 71.5721C362.644 74.3213 364.534 72.7819 366.422 71.767C367.749 71.0975 369.138 70.561 370.571 70.1653C376.67 68.1149 385.89 65.8583 390.495 64.1416C382.35 64.9763 373.814 65.6084 366.278 69.0306Z" fill="#F6F0ED"/>
<path d="M256.125 38.1451C252.777 39.0244 249.391 39.9643 246.322 41.594C243.133 43.5354 240.151 46.0715 238.274 49.3349C238.109 49.6353 237.965 49.9474 237.816 50.2561C234.905 48.2561 231.782 46.583 228.503 45.2673C231.642 47.5031 234.624 49.9492 237.431 52.5886C238.532 53.308 239.399 52.2461 239.884 51.3374C240.289 50.6157 240.759 49.9325 241.289 49.2964C243.696 46.5878 246.217 44.0027 249.211 42.1827C251.707 40.6657 254.296 39.3099 256.897 37.9819C257.187 37.8363 256.253 38.1361 256.125 38.1451Z" fill="#F6F0ED"/>
</g>
<defs>
<clipPath id="clip0_32_196">
<rect width="491.591" height="220.271" fill="white" transform="translate(0.477539 0.42157)"/>
</clipPath>
</defs>
</svg>
