<svg width="22" height="26" viewBox="0 0 22 26" fill="none" xmlns="http://www.w3.org/2000/svg">
<path d="M3.34424 6.76474C1.19553 8.3028 0.0236063 11.0625 0.000382246 13.8393C-0.0228418 16.616 1.01413 19.3845 2.58552 21.7112C3.60638 23.2227 4.93971 24.6306 6.62127 25.1588C9.50253 26.0639 12.5453 23.9407 13.5302 21.0737C14.5151 18.2067 13.8364 14.8987 12.5591 12.0408C11.6309 9.96395 10.3188 7.95005 8.40827 6.80432C6.49769 5.65859 3.89752 5.61285 2.40952 7.16488" fill="#F6F0ED"/>
<path d="M22 10.5504C18.1411 9.27241 14.2713 8.51651 10.4645 9.22847C6.78422 10.2002 3.45232 12.5264 0 14.6873C7.00948 15.5326 16.3619 14.0992 22 10.5504Z" fill="#F9A620"/>
<path d="M12 0C13.2313 1.93453 14.3329 3.92214 15.4056 5.85787C15.9421 6.82651 16.4719 7.78368 17.0085 8.72332C17.2768 9.1932 17.548 9.6569 17.8204 10.1196L18.0198 10.4496C18.0305 10.4666 18.0419 10.4828 18.0541 10.4988L18.0941 10.5465C18.1061 10.5582 18.1062 10.5476 18.1153 10.5504C18.1373 10.5473 18.1595 10.5485 18.1814 10.5541C18.2123 10.5695 18.2397 10.5988 18.2602 10.6384C18.2807 10.6779 18.2934 10.7261 18.2969 10.7769C18.2986 10.7863 18.2994 10.796 18.2994 10.8057C18.2988 10.8127 18.3013 10.8137 18.2984 10.8259L18.2829 10.8765L18.2215 11.0791L18.1009 11.4862C18.0217 11.7592 17.9427 12.0315 17.8638 12.303C17.5518 13.3954 17.2549 14.5013 16.9584 15.6174C16.3655 17.8489 15.774 20.1256 15.07 22.3853C16.2534 20.9598 17.3568 19.3759 18.3678 17.6511C18.8972 16.7531 19.4111 15.8071 19.9026 14.8249L20.2669 14.0817L20.675 13.2123C21.1246 12.2206 21.5685 11.2245 22 10.237L21.0334 8.55941L20.5795 7.79971L20.3537 7.42413L20.2412 7.23752C20.2198 7.2013 20.2073 7.18216 20.1973 7.16772L20.1631 7.11662C19.8008 6.5693 19.4303 6.04241 19.0507 5.54387C18.3112 4.56858 17.5256 3.68401 16.7007 2.89788C15.2591 1.48684 13.6659 0.504666 12 0V0Z" fill="#F9A620"/>
</svg>
