<svg width="46" height="50" viewBox="0 0 46 50" fill="none" xmlns="http://www.w3.org/2000/svg">
<g clip-path="url(#clip0_34_324)">
<path fill-rule="evenodd" clip-rule="evenodd" d="M21.3131 0.340911C22.1214 -0.11266 23.1166 -0.11266 23.9238 0.340911C27.9178 2.58258 39.9369 9.33019 43.9321 11.5719C44.7404 12.0242 45.2381 12.8623 45.2381 13.7695C45.2381 18.2528 45.2381 31.7468 45.2381 36.2302C45.2381 37.1373 44.7404 37.9754 43.9321 38.429C39.9381 40.6706 27.919 47.4183 23.9238 49.6599C23.1155 50.1135 22.1202 50.1135 21.3131 49.6599C17.319 47.4183 5.3 40.6706 1.30476 38.429C0.497619 37.9754 0 37.1385 0 36.2314C0 31.748 0 18.254 0 13.7707C0 12.8635 0.497619 12.0254 1.30595 11.5719C5.29881 9.33019 17.3202 2.58258 21.3131 0.340911V0.340911Z" fill="#004482" fill-opacity="0.5"/>
<path fill-rule="evenodd" clip-rule="evenodd" d="M0.361904 37.386C0.045238 36.9622 0 36.5598 0 36.0182C0 31.561 0 18.1444 0 13.686C0 12.7837 0.496428 11.9503 1.30238 11.5003C5.28214 9.27176 17.2607 2.56343 21.2405 0.333668C22.0464 -0.117522 23.1381 -0.107998 23.944 0.343192C27.9238 2.57176 39.8619 9.22295 43.8416 11.4515C44.1631 11.6325 44.4083 11.8503 44.6273 12.1372L0.361904 37.386Z" fill="#659AD2" fill-opacity="0.5"/>
<path fill-rule="evenodd" clip-rule="evenodd" d="M22.6188 8.33362C31.8176 8.33362 39.2855 15.8015 39.2855 25.0003C39.2855 34.1991 31.8176 41.6669 22.6188 41.6669C13.42 41.6669 5.95215 34.1991 5.95215 25.0003C5.95215 15.8015 13.42 8.33362 22.6188 8.33362V8.33362ZM22.6188 16.6669C27.2176 16.6669 30.9521 20.4003 30.9521 25.0003C30.9521 29.5991 27.2176 33.3336 22.6188 33.3336C18.02 33.3336 14.2855 29.5991 14.2855 25.0003C14.2855 20.4003 18.0188 16.6669 22.6188 16.6669V16.6669Z" fill="white" fill-opacity="0.5"/>
<path fill-rule="evenodd" clip-rule="evenodd" d="M44.6252 12.1492C45.2395 12.7242 45.2276 13.5908 45.2276 14.273C45.2276 18.7908 45.1895 31.6408 45.2383 36.1587C45.2431 36.6301 45.0871 37.1265 44.8538 37.5003L22.1348 25.0004L44.6252 12.1492Z" fill="#00599C" fill-opacity="0.5"/>
</g>
<defs>
<clipPath id="clip0_34_324">
<rect width="45.2382" height="50" fill="white"/>
</clipPath>
</defs>
</svg>
