<svg width="40" height="50" viewBox="0 0 40 50" fill="none" xmlns="http://www.w3.org/2000/svg">
<g clip-path="url(#clip0_34_287)">
<path d="M17.7482 0H25.9861V37.449C21.7665 38.2406 18.6601 38.5521 15.2991 38.5521C5.23752 38.5417 0 34.0834 0 25.5208C0 17.2709 5.55558 11.9166 14.1646 11.9166C15.5006 11.9166 16.5183 12.0209 17.7482 12.3333V0ZM18.0369 19.082C17.072 18.7695 16.2769 18.6654 15.2591 18.6654C11.0925 18.6654 8.68576 21.1861 8.68576 25.6038C8.68576 29.9049 10.9865 32.2798 15.2062 32.2798C16.1178 32.2798 16.86 32.2289 18.0369 32.0727V19.082V19.082Z" fill="#2BA977" fill-opacity="0.5"/>
<path d="M39.4578 12.9221V31.6722C39.4578 38.1294 38.9701 41.2347 37.5387 43.9118C36.2028 46.4857 34.4429 48.1087 30.8063 49.9013L23.1621 46.3285C26.7987 44.6523 28.5586 43.1711 29.6825 40.9108C30.8592 38.5993 31.2303 35.9221 31.2303 28.8805V12.9222H39.4578V12.9221ZM30.4001 0H38.6381V8.30211H30.4001V0Z" fill="#2BA977" fill-opacity="0.5"/>
</g>
<defs>
<clipPath id="clip0_34_287">
<rect width="39.5833" height="50" fill="white"/>
</clipPath>
</defs>
</svg>
