<svg width="93" height="51" viewBox="0 0 93 51" fill="none" xmlns="http://www.w3.org/2000/svg">
<g opacity="0.5" clip-path="url(#clip0_34_364)">
<path fill-rule="evenodd" clip-rule="evenodd" d="M80.7474 19.32C81.306 14.9773 78.0564 11.5666 76.041 9.94702C73.7185 12.6322 73.3577 19.6695 77.0013 22.6323C74.9678 24.4385 70.6831 26.0755 66.2956 26.0755H12.8892C12.4628 30.6554 13.2668 34.873 15.1032 38.4828L15.7107 39.5943C16.0954 40.2467 16.5157 40.8774 16.9698 41.4836C19.1656 41.6246 21.19 41.6731 23.0421 41.6322H23.0428C26.6824 41.5521 29.6522 41.122 31.903 40.3421C32.0621 40.2926 32.2342 40.307 32.383 40.3821C32.5317 40.4573 32.6454 40.5873 32.7 40.7448C32.7546 40.9022 32.7458 41.0747 32.6754 41.2258C32.6051 41.3769 32.4788 41.4947 32.3232 41.5543C32.0236 41.6585 31.7117 41.7554 31.3895 41.8476H31.3884C29.6161 42.3538 27.7156 42.6942 25.2637 42.8455C25.4094 42.848 25.1121 42.8673 25.1113 42.8673C25.0279 42.8728 24.9229 42.8848 24.8391 42.8892C23.8741 42.9435 22.8325 42.9548 21.7676 42.9548C20.6029 42.9548 19.456 42.9329 18.1736 42.8673L18.1408 42.8892C22.5905 47.8907 29.5484 50.8904 38.2701 50.8904C56.7281 50.8904 72.3843 42.7081 79.3173 24.3386C84.2357 24.8434 88.9629 23.589 91.113 19.3914C87.6881 17.4151 83.2835 18.0452 80.7474 19.32" fill="#22A0C8"/>
<path fill-rule="evenodd" clip-rule="evenodd" d="M80.7473 19.32C81.306 14.9773 78.0563 11.5666 76.041 9.94702C73.7184 12.6322 73.3576 19.6695 77.0012 22.6323C74.9677 24.4385 70.683 26.0755 66.2956 26.0755H16.0517C15.8338 33.0895 18.4366 38.4135 23.0416 41.6323H23.0427C26.6824 41.5521 29.6522 41.122 31.9029 40.3421C32.062 40.2927 32.2342 40.307 32.3829 40.3821C32.5316 40.4573 32.6453 40.5873 32.6999 40.7448C32.7545 40.9022 32.7457 41.0747 32.6754 41.2258C32.6051 41.3769 32.4787 41.4947 32.3231 41.5543C32.0235 41.6585 31.7116 41.7554 31.3894 41.8476H31.3883C29.6161 42.3538 27.5523 42.738 25.1003 42.8892C25.0996 42.8892 25.0409 42.8327 25.0402 42.8327C31.322 46.0551 40.4304 46.0434 50.8733 42.032C62.5827 37.5334 73.479 28.9633 81.0815 19.1611C80.9671 19.2128 80.8555 19.2657 80.7473 19.32" fill="#37B1D9"/>
<path fill-rule="evenodd" clip-rule="evenodd" d="M12.9902 31.6401C13.3219 34.0935 14.0398 36.3906 15.104 38.4828L15.7115 39.5943C16.0961 40.2468 16.5164 40.8775 16.9706 41.4836C19.1667 41.6246 21.1912 41.6731 23.0436 41.6323C26.6832 41.5521 29.653 41.1221 31.9038 40.3422C32.0629 40.2927 32.235 40.307 32.3838 40.3821C32.5325 40.4573 32.6462 40.5873 32.7008 40.7448C32.7553 40.9022 32.7466 41.0747 32.6762 41.2258C32.6059 41.3769 32.4796 41.4947 32.324 41.5543C32.0244 41.6585 31.7124 41.7554 31.3903 41.8476H31.3892C29.6169 42.3539 27.5641 42.7161 25.1121 42.8677C25.0279 42.8728 24.8811 42.8739 24.7962 42.8786C23.8319 42.9326 22.8009 42.9657 21.7356 42.9657C20.5712 42.9657 19.3803 42.9435 18.0985 42.8783C22.5483 47.8798 29.5492 50.8904 38.2709 50.8904C54.0728 50.8904 67.8208 44.8925 75.8002 31.6401H12.9902Z" fill="#1B81A5"/>
<path fill-rule="evenodd" clip-rule="evenodd" d="M16.5342 31.6401C17.4788 35.9478 19.7489 39.3294 23.0445 41.6323C26.6841 41.5521 29.6539 41.1221 31.9047 40.3422C32.0638 40.2927 32.2359 40.307 32.3847 40.3821C32.5334 40.4573 32.6471 40.5873 32.7017 40.7448C32.7562 40.9022 32.7474 41.0747 32.6771 41.2258C32.6068 41.3769 32.4805 41.4947 32.3249 41.5543C32.0253 41.6585 31.7133 41.7554 31.3912 41.8476H31.3901C29.6178 42.3539 27.5216 42.7161 25.0693 42.8677C31.3507 46.0893 40.4329 46.043 50.8751 42.0321C57.1922 39.6049 63.2721 35.9919 68.7266 31.6401H16.5342Z" fill="#1D91B4"/>
<path fill-rule="evenodd" clip-rule="evenodd" d="M20.1387 17.5572H27.3611V24.7796H20.1387V17.5572ZM20.7404 18.1593H21.3103V24.1779H20.7404V18.1593ZM21.8118 18.1593H22.4047V24.1779H21.8122V18.1593H21.8118ZM22.9058 18.1593H23.4988V24.1779H22.9058V18.1593ZM24.0006 18.1593H24.5932V24.1779H24.0006V18.1593ZM25.095 18.1593H25.6876V24.1779H25.095V18.1593ZM26.1891 18.1593H26.7594V24.1779H26.1891V18.1593ZM28.4719 9.224H35.6947V16.446H28.4715V9.224H28.4719ZM29.0739 9.82605H29.6436V15.8444H29.0739V9.82605ZM30.1454 9.82605H30.738V15.8444H30.1457V9.82605H30.1454ZM31.2394 9.82605H31.832V15.8444H31.2394V9.82605ZM32.3338 9.82605H32.9264V15.8444H32.3338V9.82605ZM33.4282 9.82605H34.0212V15.8444H33.4282V9.82605ZM34.5223 9.82605H35.093V15.8444H34.5223V9.82605Z" fill="#23A3C2"/>
<path fill-rule="evenodd" clip-rule="evenodd" d="M28.472 17.5573H35.6948V24.7797H28.4717V17.5573H28.472ZM29.0741 18.1593H29.6437V24.178H29.0741V18.1593ZM30.1455 18.1593H30.7381V24.178H30.1459V18.1593H30.1455ZM31.2396 18.1593H31.8322V24.178H31.2396V18.1593ZM32.334 18.1593H32.9266V24.178H32.334V18.1593ZM33.4284 18.1593H34.0213V24.178H33.4284V18.1593ZM34.5224 18.1593H35.0931V24.178H34.5224V18.1593Z" fill="#34BBDE"/>
<path fill-rule="evenodd" clip-rule="evenodd" d="M36.8057 17.5573H44.0281V24.7797H36.8057V17.5573ZM37.4073 18.1593H37.977V24.178H37.4073V18.1593ZM38.4788 18.1593H39.0714V24.178H38.4788V18.1593ZM39.5732 18.1593H40.1658V24.178H39.5732V18.1593ZM40.6676 18.1593H41.2602V24.178H40.6676V18.1593ZM41.7616 18.1593H42.3549V24.178H41.7616V18.1593ZM42.856 18.1593H43.426V24.178H42.856V18.1593V18.1593Z" fill="#23A3C2"/>
<path fill-rule="evenodd" clip-rule="evenodd" d="M36.8057 9.224H44.0281V16.446H36.8057V9.224ZM37.4073 9.82605H37.977V15.8444H37.4073V9.82605ZM38.4788 9.82605H39.0714V15.8444H38.4788V9.82605ZM39.5732 9.82605H40.1658V15.8444H39.5732V9.82605ZM40.6676 9.82605H41.2602V15.8444H40.6676V9.82605ZM41.7616 9.82605H42.3549V15.8444H41.7616V9.82605ZM42.856 9.82605H43.426V15.8444H42.856V9.82605V9.82605ZM45.1389 17.5572H52.3613V24.7796H45.1389V17.5572ZM45.7409 18.1593H46.3105V24.1779H45.7409V18.1593ZM46.8124 18.1593H47.4049V24.1779H46.8124V18.1593ZM47.9064 18.1593H48.499V24.1779H47.9064V18.1593ZM49.0008 18.1593H49.5938V24.1779H49.0008V18.1593ZM50.0952 18.1593H50.6882V24.1779H50.0952V18.1593ZM51.1896 18.1593H51.7596V24.1779H51.1896V18.1593Z" fill="#34BBDE"/>
<path fill-rule="evenodd" clip-rule="evenodd" d="M45.1387 9.224H52.3611V16.446H45.1387V9.224ZM45.7407 9.82605H46.3103V15.8444H45.7407V9.82605ZM46.8122 9.82605H47.4047V15.8444H46.8122V9.82605ZM47.9062 9.82605H48.4988V15.8444H47.9062V9.82605ZM49.0006 9.82605H49.5935V15.8444H49.0006V9.82605ZM50.095 9.82605H50.688V15.8444H50.095V9.82605ZM51.1894 9.82605H51.7594V15.8444H51.1894V9.82605Z" fill="#23A3C2"/>
<path fill-rule="evenodd" clip-rule="evenodd" d="M45.1387 0.890503H52.3611V8.11364H45.1387V0.890503ZM45.7407 1.49219H46.3103V7.51123H45.7407V1.49182V1.49219ZM46.8122 1.49219H47.4047V7.51123H46.8122V1.49182V1.49219ZM47.9062 1.49219H48.4988V7.51123H47.9062V1.49182V1.49219ZM49.0006 1.49219H49.5935V7.51123H49.0006V1.49182V1.49219ZM50.095 1.49219H50.688V7.51123H50.095V1.49182V1.49219ZM51.1894 1.49219H51.7594V7.51123H51.1894V1.49182V1.49219Z" fill="#34BBDE"/>
<path fill-rule="evenodd" clip-rule="evenodd" d="M53.4727 17.5573H60.6951V24.7797H53.4727V17.5573ZM54.074 18.1593H54.6443V24.178H54.0743V18.1593H54.074ZM55.1454 18.1593H55.7384V24.178H55.1458V18.1593H55.1454ZM56.2402 18.1593H56.8331V24.178H56.2402V18.1593ZM57.3342 18.1593H57.9272V24.178H57.3342V18.1593ZM58.429 18.1593H59.0216V24.178H58.429V18.1593ZM59.523 18.1593H60.093V24.178H59.523V18.1593Z" fill="#23A3C2"/>
<path fill-rule="evenodd" clip-rule="evenodd" d="M35.2425 36.4894C35.5065 36.4859 35.7685 36.5349 36.0133 36.6334C36.2582 36.732 36.481 36.8783 36.6689 37.0637C36.8568 37.2491 37.0059 37.47 37.1077 37.7135C37.2095 37.9571 37.2619 38.2184 37.2618 38.4824C37.2618 38.7463 37.2093 39.0076 37.1074 39.2511C37.0055 39.4946 36.8563 39.7155 36.6684 39.9008C36.4804 40.0862 36.2575 40.2323 36.0126 40.3308C35.7678 40.4293 35.5057 40.4782 35.2418 40.4746C34.718 40.4674 34.2181 40.2542 33.8503 39.8813C33.4824 39.5083 33.2763 39.0055 33.2764 38.4816C33.2765 37.9578 33.4828 37.4551 33.8508 37.0822C34.2188 36.7094 34.7187 36.4964 35.2425 36.4894Z" fill="#D3ECEC"/>
<path fill-rule="evenodd" clip-rule="evenodd" d="M35.2425 37.0547C35.4247 37.0547 35.5986 37.089 35.7589 37.1513C35.6483 37.2155 35.5618 37.3144 35.513 37.4327C35.4642 37.551 35.4556 37.682 35.4887 37.8056C35.5218 37.9292 35.5947 38.0384 35.6961 38.1165C35.7975 38.1945 35.9218 38.237 36.0497 38.2373C36.2702 38.2373 36.4615 38.1152 36.5607 37.9345C36.678 38.2172 36.7014 38.5302 36.6272 38.8272C36.553 39.1242 36.3853 39.3895 36.1488 39.5838C35.9123 39.7782 35.6195 39.8913 35.3138 39.9065C35.008 39.9217 34.7055 39.8382 34.4509 39.6682C34.1963 39.4983 34.0031 39.251 33.8998 38.9628C33.7965 38.6746 33.7887 38.3609 33.8774 38.0679C33.9662 37.7749 34.1468 37.5183 34.3926 37.3358C34.6384 37.1534 34.9364 37.0548 35.2425 37.0547M0 32.3604H92.6861C90.6682 31.8487 86.3012 31.157 87.0213 28.512C83.3514 32.7584 74.5018 31.4912 72.2682 29.3975C69.7813 33.0047 55.3022 31.6334 54.2923 28.8232C51.1742 32.4825 41.5126 32.4825 38.3945 28.8232C37.3839 31.6334 22.9052 33.0047 20.4179 29.3972C18.1847 31.4912 9.33541 32.7584 5.66553 28.5123C6.38566 31.157 2.01862 31.8487 0 32.3608" fill="#364548"/>
<path fill-rule="evenodd" clip-rule="evenodd" d="M40.5397 50.8475C35.6052 48.506 32.8971 45.3227 31.3901 41.8481C29.557 42.3711 27.354 42.7057 24.7938 42.8493C23.8295 42.9032 22.8149 42.9309 21.7508 42.9309C20.5233 42.9309 19.23 42.8944 17.8721 42.8226C22.3973 47.3453 27.9641 50.8271 38.2718 50.8905C39.0327 50.8905 39.7878 50.876 40.5397 50.8475" fill="#BDD9D7"/>
<path fill-rule="evenodd" clip-rule="evenodd" d="M33.222 45.0545C32.5394 44.1277 31.8773 42.963 31.3904 41.8474C29.5573 42.3711 27.3535 42.7057 24.793 42.8496C26.5517 43.8041 29.0667 44.6886 33.2224 45.0545" fill="#D3ECEC"/>
</g>
<defs>
<clipPath id="clip0_34_364">
<rect width="93" height="51" fill="white"/>
</clipPath>
</defs>
</svg>
