<svg width="50" height="50" viewBox="0 0 50 50" fill="none" xmlns="http://www.w3.org/2000/svg">
<g clip-path="url(#clip0_34_316)">
<path d="M49.9922 26.2486C49.9922 22.0453 47.3803 18.4133 43.5033 16.9849C43.6675 16.0965 43.7494 15.1948 43.748 14.2914C43.748 6.49665 37.4227 0.171265 29.6279 0.171265C25.098 0.171265 20.8539 2.33416 18.2012 6.04783C16.8953 5.02751 15.3037 4.49705 13.6305 4.49705C9.50859 4.49705 6.12148 7.84334 6.12148 12.006C6.12148 12.9039 6.28477 13.8017 6.57031 14.6179C2.65273 15.9646 0 19.7191 0 23.8816C0 28.0851 2.61191 31.758 6.52949 33.1863C6.36641 34.0433 6.28477 34.9412 6.28477 35.8797C6.28477 43.6336 12.6102 49.9592 20.3641 49.9592C24.9348 49.9592 29.1383 47.7554 31.7908 44.0826C33.0967 45.1027 34.7291 45.6742 36.4023 45.6742C40.5242 45.6742 43.9113 42.3277 43.9113 38.1652C43.9113 37.2674 43.748 36.3695 43.4625 35.5533C47.2984 34.1658 49.992 30.4113 49.992 26.2486H49.9922Z" fill="#F6F0ED" fill-opacity="0.5"/>
<path d="M19.5477 21.5554L30.6889 26.6568L41.9523 16.7808C42.1165 15.9612 42.1985 15.1273 42.1971 14.2914C42.1971 7.35388 36.5654 1.72205 29.6277 1.72205C25.465 1.72205 21.5883 3.76247 19.2621 7.1904L17.3848 16.9033L19.5477 21.5556V21.5554Z" fill="#F4BD19" fill-opacity="0.5"/>
<path d="M7.99863 33.3497C7.83555 34.1659 7.75391 35.0229 7.75391 35.8799C7.75391 42.8174 13.4264 48.4901 20.3641 48.4901C24.5676 48.4901 28.4445 46.4088 30.8113 42.9807L32.6479 33.268L30.1584 28.534L18.9766 23.4329L7.99863 33.3497V33.3497Z" fill="#3CBEB1" fill-opacity="0.5"/>
<path d="M7.91719 14.0465L15.5486 15.8422L17.2625 7.14963C16.2016 6.33342 14.9363 5.92542 13.5896 5.92542C10.284 5.92542 7.5498 8.61877 7.5498 11.9653C7.5498 12.659 7.67227 13.3936 7.91699 14.0465H7.91719Z" fill="#E9478C" fill-opacity="0.5"/>
<path d="M7.26367 15.8828C3.83574 16.9848 1.46875 20.2904 1.46875 23.8816C1.46875 27.3914 3.63164 30.5338 6.89648 31.758L17.6295 22.0451L15.6705 17.842L7.26367 15.883V15.8828Z" fill="#2C458F" fill-opacity="0.5"/>
<path d="M32.7705 42.9399C33.8314 43.7563 35.0967 44.2051 36.4025 44.2051C39.7082 44.2051 42.4424 41.5118 42.4424 38.1653C42.4424 37.4307 42.3199 36.7368 42.0752 36.0838L34.4438 34.2883L32.7705 42.9399V42.9399Z" fill="#95C63D" fill-opacity="0.5"/>
<path d="M34.3207 32.2885L42.7275 34.2474C46.1555 33.1049 48.5225 29.84 48.5225 26.2486C48.5225 22.7388 46.3596 19.6375 43.0947 18.3724L32.0762 28.0035L34.3207 32.2886V32.2885Z" fill="#176655" fill-opacity="0.5"/>
</g>
<defs>
<clipPath id="clip0_34_316">
<rect width="50" height="50" fill="white"/>
</clipPath>
</defs>
</svg>
