<svg width="66" height="39" viewBox="0 0 66 39" fill="none" xmlns="http://www.w3.org/2000/svg">
<g clip-path="url(#clip0_35_2)">
<path d="M65.89 27.4708C65.6668 23.5357 64.7235 18.4133 64.3429 15.6379C63.683 12.504 62.8686 9.40571 62.3393 6.24371C62.0993 5.10032 61.8951 3.9493 61.6426 2.80875C61.6407 2.79873 61.6386 2.78887 61.6365 2.77884C61.6355 2.77446 61.6348 2.76999 61.6338 2.76561L61.6347 2.77214C61.5217 2.17599 61.2507 1.62277 60.8509 1.17259C60.4512 0.722401 59.9381 0.392452 59.3673 0.218589C57.9535 -0.0693999 56.5376 0.437595 55.1314 0.579856C56.4519 0.402561 53.4828 0.797712 52.9747 0.850366C51.4547 1.01987 49.9275 1.1242 48.4005 1.1998C43.133 1.30328 37.9044 0.467327 32.6554 0.148887C22.3486 -0.5405 12.0896 1.25899 2.07658 3.5913C1.68139 3.6909 1.28553 3.78784 0.888992 3.88209C2.0777 3.90502 3.26642 3.87574 4.45524 3.88808C9.65689 4.02123 14.8594 3.78518 20.0603 3.94554C28.9432 4.0587 37.7708 5.19291 46.6418 5.48935C52.5242 5.27845 54.6266 4.53507 57.8467 4.258C57.9256 4.5239 58.0005 4.81137 58.1935 5.65284C58.0114 5.77273 57.8299 5.89333 57.6475 6.01261C54.0353 8.3516 50.4955 10.8103 46.7754 12.9714C43.9617 14.5859 41.1541 16.2212 38.257 17.6764C36.2947 18.6335 35.4287 19.0564 33.6918 19.0538C32.6755 19.0262 28.7742 16.1243 25.6088 14.1936C23.3038 12.7953 20.8458 11.6867 18.3889 10.5997C16.3843 9.63406 14.3303 8.77899 12.2356 8.03817C9.12751 7.03249 5.86307 6.38565 2.94419 4.95659C5.658 7.05998 8.85677 8.26321 11.8924 9.77596C15.6247 11.7749 19.2616 13.9695 22.8403 16.2404C24.8863 17.5895 26.785 19.155 28.8284 20.5083C30.3368 21.5037 31.9593 22.6165 33.8303 22.5476C37.2336 22.4909 40.1461 20.3485 42.8908 18.5201C45.7008 16.5766 48.4394 14.5264 51.0641 12.3294C53.5251 10.2316 55.8952 8.02019 58.2194 5.76599C58.2309 5.81621 58.241 5.86033 58.2533 5.91436C59.0005 9.74771 59.9154 13.5414 60.823 17.3366C61.3877 19.7841 61.6922 22.2857 62.083 24.7658C62.3751 26.8587 63.5322 33.1852 61.765 35.6506C61.7371 35.6802 61.702 35.717 61.6585 35.7622C61.6384 35.7751 61.6166 35.7851 61.5959 35.7971C61.6058 35.7927 61.615 35.7879 61.6251 35.7837C61.6039 35.8015 61.5791 35.8143 61.5525 35.8212C61.5298 35.8333 61.5086 35.8481 61.4852 35.8587C61.5014 35.8466 61.5185 35.8359 61.5363 35.8266C61.1374 35.937 59.6967 35.8055 58.5217 35.7929C55.5095 35.7049 52.4982 35.5822 49.4995 35.2645C44.1517 34.7745 38.7775 34.7008 33.4345 34.1329C27.7917 33.5983 22.1281 33.4349 16.4718 33.127C12.8373 32.7719 9.22808 33.2659 5.61067 33.5575C5.11081 33.582 4.61022 33.609 4.1098 33.59C4.01306 33.5739 3.92339 33.5639 3.8579 33.5591C3.74176 33.5343 3.62674 33.5058 3.51296 33.4712C3.42459 31.201 3.93441 24.8295 3.51212 21.1606C3.01908 15.0054 1.7883 8.9271 0.313231 2.94547C0.676829 9.71203 1.13363 16.5073 0.710108 23.2812C0.57716 26.042 0.277087 28.7899 0.096301 31.5472C-0.495244 36.101 1.73063 37.0343 4.24814 36.9103C7.36849 36.7165 8.36108 36.3798 11.4993 36.1557C14.0165 35.9923 16.5341 36.2184 19.0476 36.3487C25.3307 36.5876 31.6048 36.9835 37.8699 37.5363C41.0492 37.7877 44.2415 37.7963 47.4196 38.0714C51.1428 38.4334 54.8685 38.748 58.6082 38.8602C59.8539 38.8665 61.1163 39.171 62.3443 38.8611C66.2319 37.6864 66.1615 30.8002 65.89 27.4708Z" fill="#F6F0ED"/>
<path d="M61.5966 35.7971C61.5751 35.8065 61.555 35.8162 61.5361 35.8266C61.5421 35.825 61.547 35.8231 61.5525 35.8213C61.5673 35.8135 61.582 35.8054 61.5966 35.7971Z" fill="#F6F0ED"/>
<path d="M9.82812 5.53722C18.2025 7.91492 26.1253 11.71 33.2656 16.764C38.603 13.5967 43.9403 10.4294 49.6371 7.50694C47.915 6.91892 46.0699 6.81044 44.2929 7.19272C42.5158 7.57499 40.8712 8.43415 39.529 9.68135C36.9315 12.1583 32.7913 12.0164 29.4594 10.7466C26.1276 9.4768 23.1978 7.28036 19.8769 5.9813C16.5559 4.68224 12.434 4.46377 9.82812 5.53722Z" fill="#F9A620"/>
</g>
<defs>
<clipPath id="clip0_35_2">
<rect width="66" height="39" fill="white"/>
</clipPath>
</defs>
</svg>
