<svg width="70" height="55" viewBox="0 0 70 55" fill="none" xmlns="http://www.w3.org/2000/svg">
<path d="M30.364 50.992H30.22C30.028 51.392 29.76 51.688 29.416 51.88C29.08 52.072 28.724 52.168 28.348 52.168C27.956 52.168 27.592 52.104 27.256 51.976C26.92 51.84 26.624 51.644 26.368 51.388C26.12 51.124 25.924 50.804 25.78 50.428C25.636 50.052 25.564 49.616 25.564 49.12V48.928C25.564 48.44 25.636 48.008 25.78 47.632C25.924 47.256 26.12 46.94 26.368 46.684C26.624 46.42 26.92 46.22 27.256 46.084C27.592 45.948 27.948 45.88 28.324 45.88C28.732 45.88 29.1 45.972 29.428 46.156C29.764 46.332 30.028 46.608 30.22 46.984H30.364V46.048H31.3V50.776C31.3 51.016 31.408 51.136 31.624 51.136H31.924V52H31.288C31.016 52 30.792 51.912 30.616 51.736C30.448 51.56 30.364 51.336 30.364 51.064V50.992ZM28.444 51.28C28.724 51.28 28.98 51.228 29.212 51.124C29.452 51.02 29.656 50.872 29.824 50.68C29.992 50.488 30.124 50.26 30.22 49.996C30.316 49.724 30.364 49.424 30.364 49.096V48.952C30.364 48.632 30.316 48.34 30.22 48.076C30.124 47.804 29.988 47.572 29.812 47.38C29.644 47.188 29.44 47.04 29.2 46.936C28.968 46.824 28.716 46.768 28.444 46.768C28.164 46.768 27.908 46.82 27.676 46.924C27.444 47.028 27.24 47.176 27.064 47.368C26.896 47.552 26.764 47.78 26.668 48.052C26.572 48.316 26.524 48.608 26.524 48.928V49.12C26.524 49.8 26.7 50.332 27.052 50.716C27.412 51.092 27.876 51.28 28.444 51.28ZM36.2717 50.92H36.1277C35.9357 51.304 35.6837 51.608 35.3717 51.832C35.0597 52.056 34.6637 52.168 34.1837 52.168C33.8557 52.168 33.5517 52.112 33.2717 52C32.9997 51.896 32.7637 51.736 32.5637 51.52C32.3717 51.304 32.2197 51.036 32.1077 50.716C32.0037 50.396 31.9517 50.024 31.9517 49.6V46.048H32.8877V49.48C32.8877 50.104 33.0157 50.56 33.2717 50.848C33.5277 51.136 33.9197 51.28 34.4477 51.28C35.0157 51.28 35.4597 51.088 35.7797 50.704C36.1077 50.312 36.2717 49.792 36.2717 49.144V46.048H37.2077V53.464C37.2077 53.736 37.1197 53.96 36.9437 54.136C36.7757 54.312 36.5557 54.4 36.2837 54.4H32.8877V53.536H35.9477C36.1637 53.536 36.2717 53.416 36.2717 53.176V50.92ZM39.0953 47.584C39.0953 47.872 39.2153 48.092 39.4553 48.244C39.7033 48.396 40.1513 48.496 40.7993 48.544C41.4953 48.6 42.0233 48.768 42.3833 49.048C42.7513 49.32 42.9353 49.72 42.9353 50.248V50.32C42.9353 50.608 42.8753 50.868 42.7553 51.1C42.6433 51.324 42.4833 51.516 42.2753 51.676C42.0753 51.836 41.8273 51.956 41.5313 52.036C41.2433 52.124 40.9273 52.168 40.5833 52.168C40.1193 52.168 39.7193 52.108 39.3833 51.988C39.0553 51.86 38.7793 51.696 38.5553 51.496C38.3393 51.288 38.1753 51.056 38.0633 50.8C37.9513 50.536 37.8873 50.272 37.8713 50.008L38.7593 49.792C38.7993 50.248 38.9753 50.616 39.2873 50.896C39.5993 51.168 40.0153 51.304 40.5353 51.304C40.9753 51.304 41.3273 51.22 41.5913 51.052C41.8633 50.876 41.9993 50.632 41.9993 50.32C41.9993 49.984 41.8673 49.744 41.6033 49.6C41.3393 49.456 40.9113 49.364 40.3193 49.324C39.6313 49.276 39.1033 49.116 38.7353 48.844C38.3673 48.572 38.1833 48.176 38.1833 47.656V47.584C38.1833 47.304 38.2433 47.06 38.3633 46.852C38.4833 46.636 38.6433 46.456 38.8433 46.312C39.0513 46.168 39.2833 46.06 39.5393 45.988C39.7953 45.916 40.0633 45.88 40.3433 45.88C40.7353 45.88 41.0793 45.936 41.3753 46.048C41.6713 46.152 41.9193 46.292 42.1193 46.468C42.3193 46.636 42.4713 46.832 42.5753 47.056C42.6873 47.28 42.7593 47.504 42.7913 47.728L41.9033 47.944C41.8633 47.56 41.7073 47.26 41.4353 47.044C41.1713 46.828 40.8233 46.72 40.3913 46.72C40.2233 46.72 40.0593 46.74 39.8993 46.78C39.7473 46.812 39.6113 46.864 39.4913 46.936C39.3713 47.008 39.2753 47.1 39.2033 47.212C39.1313 47.316 39.0953 47.44 39.0953 47.584Z" fill="black"/>
<path d="M0.54 17.748C0.54 12.3987 1.81833 8.249 4.375 5.299C6.93167 2.349 10.4913 0.873997 15.054 0.873997C19.6167 0.873997 23.1763 2.349 25.733 5.299C28.2897 8.249 29.568 12.3987 29.568 17.748V26.952C29.568 31.9867 28.4863 35.9397 26.323 38.811C24.199 41.643 21.2097 43.2753 17.355 43.708V46.186C17.355 47.366 17.886 47.956 18.948 47.956H23.904V52.204H17.296C15.9587 52.204 14.8573 51.7713 13.992 50.906C13.166 50.0407 12.753 48.9393 12.753 47.602V43.708C8.859 43.236 5.85 41.584 3.726 38.752C1.602 35.92 0.54 31.9867 0.54 26.952V17.748ZM15.054 39.224C18.24 39.224 20.6197 38.1423 22.193 35.979C23.8057 33.7763 24.612 30.6493 24.612 26.598V18.102C24.612 14.326 23.8057 11.2777 22.193 8.957C20.6197 6.63633 18.24 5.476 15.054 5.476C11.868 5.476 9.46867 6.63633 7.856 8.957C6.28267 11.2777 5.496 14.326 5.496 18.102V26.598C5.496 30.6493 6.28267 33.7763 7.856 35.979C9.46867 38.1423 11.868 39.224 15.054 39.224Z" fill="black"/>
<path d="M52.66 22.096C52.66 22.592 52.576 23.032 52.408 23.416C52.248 23.792 52.032 24.112 51.76 24.376C51.488 24.632 51.168 24.828 50.8 24.964C50.44 25.1 50.064 25.168 49.672 25.168C49.272 25.168 48.892 25.1 48.532 24.964C48.172 24.828 47.856 24.632 47.584 24.376C47.312 24.112 47.092 23.792 46.924 23.416C46.764 23.032 46.684 22.592 46.684 22.096V21.952C46.684 21.464 46.764 21.032 46.924 20.656C47.092 20.272 47.312 19.948 47.584 19.684C47.864 19.42 48.184 19.22 48.544 19.084C48.904 18.948 49.28 18.88 49.672 18.88C50.064 18.88 50.44 18.948 50.8 19.084C51.16 19.22 51.476 19.42 51.748 19.684C52.028 19.948 52.248 20.272 52.408 20.656C52.576 21.032 52.66 21.464 52.66 21.952V22.096ZM49.672 24.28C49.96 24.28 50.224 24.232 50.464 24.136C50.712 24.032 50.928 23.884 51.112 23.692C51.296 23.5 51.44 23.272 51.544 23.008C51.648 22.736 51.7 22.432 51.7 22.096V21.952C51.7 21.632 51.648 21.34 51.544 21.076C51.44 20.804 51.296 20.572 51.112 20.38C50.928 20.188 50.712 20.04 50.464 19.936C50.216 19.824 49.952 19.768 49.672 19.768C49.392 19.768 49.128 19.824 48.88 19.936C48.632 20.04 48.416 20.188 48.232 20.38C48.048 20.572 47.904 20.804 47.8 21.076C47.696 21.34 47.644 21.632 47.644 21.952V22.096C47.644 22.432 47.696 22.736 47.8 23.008C47.904 23.272 48.048 23.5 48.232 23.692C48.416 23.884 48.628 24.032 48.868 24.136C49.116 24.232 49.384 24.28 49.672 24.28ZM58.5197 22.888C58.4557 23.216 58.3437 23.52 58.1837 23.8C58.0317 24.08 57.8357 24.324 57.5957 24.532C57.3557 24.732 57.0757 24.888 56.7557 25C56.4357 25.112 56.0797 25.168 55.6877 25.168C55.2717 25.168 54.8757 25.1 54.4997 24.964C54.1317 24.828 53.8077 24.632 53.5277 24.376C53.2477 24.112 53.0237 23.792 52.8557 23.416C52.6957 23.04 52.6157 22.608 52.6157 22.12V21.976C52.6157 21.496 52.6957 21.064 52.8557 20.68C53.0237 20.296 53.2477 19.972 53.5277 19.708C53.8077 19.444 54.1317 19.24 54.4997 19.096C54.8757 18.952 55.2717 18.88 55.6877 18.88C56.0637 18.88 56.4117 18.936 56.7317 19.048C57.0517 19.16 57.3317 19.32 57.5717 19.528C57.8197 19.728 58.0197 19.968 58.1717 20.248C58.3317 20.528 58.4397 20.832 58.4957 21.16L57.5597 21.376C57.5357 21.168 57.4757 20.968 57.3797 20.776C57.2917 20.576 57.1677 20.404 57.0077 20.26C56.8557 20.108 56.6677 19.988 56.4437 19.9C56.2197 19.812 55.9597 19.768 55.6637 19.768C55.3757 19.768 55.1037 19.824 54.8477 19.936C54.5997 20.04 54.3797 20.192 54.1877 20.392C53.9957 20.584 53.8437 20.816 53.7317 21.088C53.6277 21.36 53.5757 21.656 53.5757 21.976V22.12C53.5757 22.456 53.6277 22.76 53.7317 23.032C53.8437 23.296 53.9957 23.52 54.1877 23.704C54.3797 23.888 54.6037 24.032 54.8597 24.136C55.1157 24.232 55.3917 24.28 55.6877 24.28C55.9837 24.28 56.2397 24.236 56.4557 24.148C56.6797 24.052 56.8677 23.932 57.0197 23.788C57.1797 23.636 57.3037 23.464 57.3917 23.272C57.4877 23.08 57.5517 22.88 57.5837 22.672L58.5197 22.888ZM59.7953 25H58.8593V16.6H59.7953V20.128H59.9393C60.1233 19.744 60.3793 19.44 60.7073 19.216C61.0433 18.992 61.4513 18.88 61.9313 18.88C62.5793 18.88 63.1033 19.096 63.5033 19.528C63.9113 19.952 64.1153 20.592 64.1153 21.448V25H63.1793V21.64C63.1793 21.016 63.0393 20.548 62.7593 20.236C62.4793 19.924 62.0993 19.768 61.6193 19.768C61.0513 19.768 60.6033 19.964 60.2753 20.356C59.9553 20.74 59.7953 21.256 59.7953 21.904V25ZM64.563 19.048H66.435V16.6H67.371V19.048H69.675V19.912H67.371V23.776C67.371 24.016 67.479 24.136 67.695 24.136H69.387V25H67.359C67.087 25 66.863 24.912 66.687 24.736C66.519 24.56 66.435 24.336 66.435 24.064V19.912H64.563V19.048Z" fill="black"/>
<path d="M37.207 43H32.251V1.7H37.207V19.99H38.564L54.435 1.7H60.571V2.054L43.461 21.996V22.704L61.279 42.646V43H55.025L38.564 24.592H37.207V43Z" fill="black"/>
</svg>
