<svg width="50" height="50" viewBox="0 0 50 50" fill="none" xmlns="http://www.w3.org/2000/svg">
<path fill-rule="evenodd" clip-rule="evenodd" d="M13.2944 34.553C13.2877 34.4856 13.2742 34.3917 13.2607 34.2441C13.2472 34.1702 13.2405 34.103 13.2337 34.0358L12.9448 34.0628H12.8708C12.1251 34.0962 11.2582 34.0358 10.425 33.8949C9.59856 33.7538 8.7991 33.532 8.18096 33.2498C6.91096 32.6587 5.84277 31.8187 5.35225 31.1536C5.05654 30.7373 4.87523 30.3005 4.84825 29.8569C4.78781 28.99 5.1507 28.3249 5.99037 27.9218C6.47414 27.6866 7.13949 27.6261 7.99264 27.801C9.08781 28.0295 9.77987 28.1771 10.2167 28.2845C8.26137 25.0394 6.82354 21.5524 5.97039 18.4617C4.78781 14.1884 4.77458 10.4731 6.05107 8.84047C7.98615 6.37466 10.378 5.13838 12.7162 4.58068C16.1294 3.76773 19.529 4.51349 20.9803 4.93008C21.3946 4.85453 21.8114 4.79405 22.2301 4.74876C22.8347 4.68833 23.4329 4.64786 24.0375 4.64112C25.2269 4.62088 26.3015 4.77574 27.2691 5.06445C27.966 5.26839 28.6343 5.55957 29.2581 5.93109C32.8121 4.72153 45.8535 1.25471 45.1279 15.7541C45.0408 17.4877 43.6836 24.5222 41.6276 29.3999C40.9153 31.0865 40.1091 32.551 39.2085 33.5453C37.9658 34.9294 36.5344 35.5408 34.9088 34.9561C34.472 34.8015 34.0419 34.5598 33.6256 34.2171C33.5581 34.2978 33.4777 34.3849 33.397 34.4589C32.9065 34.9227 32.1138 35.2856 31.4892 35.4399C30.7434 35.6282 29.5001 35.8497 28.116 35.6147C27.5741 35.5254 27.0458 35.3674 26.5438 35.1444C26.564 35.366 26.5773 35.608 26.5708 35.8632C26.557 36.2259 26.5506 36.589 26.5373 36.844C26.5033 37.7244 26.4567 38.5978 26.3625 39.4442C26.2616 40.3311 26.1137 41.1173 25.8852 41.7419C25.8517 41.8293 25.825 41.9097 25.7916 42.0039C25.2606 43.6433 24.3065 46.5594 19.778 45.5918C18.0177 45.2157 16.452 44.7387 15.1958 42.938C14.1006 41.386 13.4018 38.8932 13.2944 34.553V34.553Z" fill="#6A778F" fill-opacity="0.5"/>
<path fill-rule="evenodd" clip-rule="evenodd" d="M15.109 31.4823C15.2232 29.2787 14.1348 28.8824 13.3755 28.6671C13.4562 28.5529 13.5638 28.4186 13.6844 28.264C14.0741 27.7869 14.5648 27.1685 14.9609 26.208C15.0214 26.0601 15.2029 25.7377 15.438 25.3144C16.439 23.5204 18.4143 19.9797 18.0246 17.5541C17.7492 15.8275 16.4322 14.6851 13.1467 15.0278C13.1535 14.9943 13.1669 14.9606 13.1802 14.9269C13.3348 14.4836 13.5833 13.8989 13.9462 13.2473C15.3845 10.6339 18.5087 6.98577 24.0719 6.89836C30.7838 6.78422 32.0068 13.4626 32.2284 16.2711C31.9023 16.0696 31.5607 15.8944 31.2069 15.7471C30.6429 15.5188 30.0046 15.3238 29.3662 15.2229C28.7011 15.1222 28.0293 15.1357 27.4243 15.3235C26.477 15.6192 25.7245 16.3248 25.4288 17.6684C24.3944 22.4724 25.3214 24.5419 26.0475 26.161C26.5785 27.3301 26.358 26.8313 26.6913 27.769C26.813 28.1107 26.9198 28.4323 26.9943 28.7275C26.9148 28.708 26.834 28.6945 26.7525 28.6873C26.3157 28.6471 25.8052 28.8217 25.4491 29.0769C25.0662 29.3524 24.7572 29.7825 24.5824 30.2595C24.4278 30.7031 24.448 31.1264 24.4548 31.5899C24.5017 33.7465 24.4883 35.8764 24.4078 37.61C24.3272 39.3368 24.1861 40.6267 23.998 41.1105C23.7964 41.6143 23.4738 42.36 22.8624 42.8775C22.2712 43.3813 21.3574 43.6837 19.9063 43.3745C18.6363 43.099 17.7764 42.7097 17.212 42.1183C16.6408 41.5336 16.3251 40.7004 16.1235 39.5448C15.9824 38.6981 15.7809 37.2201 15.5926 35.7556C15.3643 33.9683 15.1627 32.1344 15.109 31.4823V31.4823ZM30.8782 32.5375C28.6679 32.0805 28.4458 31.8052 27.7335 30.8981C27.4784 30.5735 27.2048 30.264 26.9139 29.971C26.8447 29.8994 26.7512 29.8562 26.6519 29.8499C26.4908 29.8364 26.2623 29.9238 26.1209 30.0247C25.9328 30.1591 25.7717 30.3876 25.6776 30.6429C25.5904 30.9051 25.5564 31.2276 25.7248 31.4626C26.5512 32.6117 27.566 33.0952 28.5133 33.2565C29.4738 33.4244 30.3807 33.2565 30.9254 33.1222C31.1939 33.0547 31.5031 32.9271 31.7046 32.786C31.5435 32.7053 31.2743 32.6179 30.8782 32.5375V32.5375ZM31.5166 28.3314C31.6964 28.1782 31.8669 28.0144 32.0273 27.8409C32.8667 26.9203 33.4312 25.711 33.5588 24.3606C33.608 23.8661 33.5968 23.3674 33.5253 22.8756C33.2431 20.8533 33.3505 19.0323 33.4109 18.085C33.4247 17.8365 33.4382 17.6482 33.4312 17.5006C33.4382 17.4537 33.5923 11.3732 30.1324 7.97329C33.2563 6.94531 43.3551 4.47949 42.8039 15.579C42.7232 17.1982 41.44 23.8161 39.4914 28.4321C38.8805 29.8834 38.2014 31.1264 37.4827 31.9259C36.8848 32.5909 36.2734 32.9136 35.6822 32.6986C35.3595 32.5842 35.0104 32.3155 34.6405 31.8719C33.6361 30.6596 32.5943 29.4789 31.5166 28.3314V28.3314ZM19.1738 6.77073C16.0091 8.16835 14.0204 10.7011 12.9319 12.6901C12.5973 13.283 12.3141 13.9034 12.0853 14.5446C11.8837 15.1087 11.8098 15.5523 11.8435 15.7471C11.8435 15.7673 11.85 15.7876 11.85 15.8075C11.823 16.634 11.9239 17.3126 12.0383 18.0249C12.119 18.5758 12.2061 19.147 12.2331 19.8188C12.2534 20.4572 12.1727 21.129 12.0853 21.8279C11.8702 23.6083 11.642 25.503 12.8378 27.4648C12.8175 27.4917 12.7973 27.5187 12.7773 27.539C12.7304 27.5991 12.6832 27.6598 12.6362 27.7135C10.5735 24.4682 9.0685 20.9005 8.20861 17.7764C7.21435 14.1819 7.05975 11.2523 7.87944 10.1976C9.29703 8.39014 11.0303 7.40262 12.7574 6.89861C15.2097 6.1928 17.6553 6.46153 19.1738 6.77073V6.77073ZM32.2688 17.4939C32.2688 17.6684 32.2551 17.8433 32.2486 18.0179C32.1884 18.9921 32.0738 20.8803 32.3762 23.0369C32.4364 23.4535 32.4436 23.8633 32.4032 24.2529C32.3086 25.2969 31.8743 26.2811 31.1669 27.0547C30.5018 27.7869 29.6217 28.2839 28.6539 28.4186C28.479 28.4455 28.2977 28.452 28.1229 28.4588C28.0352 28.1031 27.9125 27.7348 27.7722 27.3493C27.5792 26.8184 27.526 26.6028 27.1084 25.684C26.4498 24.2192 25.6104 22.3516 26.5709 17.9102C26.7523 17.0503 27.2093 16.6067 27.767 16.4322C28.1901 16.2975 28.6871 16.2975 29.1978 16.3717C29.7353 16.4524 30.2795 16.627 30.77 16.8218C31.6175 17.1714 32.2623 17.4669 32.2688 17.4939V17.4939ZM28.8222 17.0101C28.3937 16.9183 27.8106 16.9971 27.4243 17.2049C27.2028 17.3325 27.0819 17.5006 27.1022 17.6819C27.1219 17.823 27.2633 18.0246 27.478 18.1725C27.6796 18.3068 27.9553 18.4077 28.2508 18.3673H28.2578C28.5465 18.3271 28.802 18.159 28.9833 17.9709C29.1587 17.7828 29.2681 17.58 29.2585 17.4054C29.2489 17.2308 29.1213 17.0848 28.8222 17.0101V17.0101ZM13.0129 16.2039C15.6735 15.8745 16.7015 16.6003 16.8828 17.7359C17.2055 19.7649 15.3643 23.0706 14.424 24.7569C14.1687 25.2073 13.9804 25.5567 13.893 25.7647C13.7924 25.9932 13.6914 26.2083 13.5841 26.3963C12.8855 24.9183 13.0668 23.3998 13.2414 21.962C13.3288 21.2162 13.416 20.4904 13.396 19.7849C13.369 19.0526 13.2749 18.4412 13.1877 17.8565C13.1 17.3126 13.0194 16.7883 13.0129 16.2039ZM12.6834 29.6751C12.7709 29.7021 12.8718 29.7288 12.9724 29.7622C13.3755 29.8766 14.0139 30.0512 13.9467 31.4353C13.8927 31.489 13.7182 31.5427 13.4562 31.5899C13.0463 31.6774 12.5021 31.6908 11.9242 31.6636C10.9164 31.6034 9.8415 31.3881 9.15592 31.0727C8.45036 30.7433 7.8592 30.3469 7.49657 29.9975C9.0104 30.2795 11.3102 30.7119 12.6834 29.6751V29.6751ZM14.0943 17.0101C14.0741 17.131 14.175 17.3393 14.3428 17.5141C14.5462 17.7255 14.7822 17.8544 15.0323 17.8825C15.2268 17.9042 15.4299 17.8651 15.6328 17.7559C15.8717 17.6233 16.0468 17.443 16.0499 17.2617C16.0519 17.1377 15.9739 17.0132 15.7804 16.9025C15.619 16.815 15.3907 16.7411 15.1352 16.7009C14.88 16.6672 14.638 16.6739 14.4567 16.7211C14.2489 16.7683 14.1148 16.869 14.0943 17.0101V17.0101ZM11.9849 28.8486C11.7162 29.1041 10.809 29.5005 7.7653 28.8689C7.17414 28.748 6.75755 28.775 6.48882 28.9026C6.13941 29.0704 5.98481 29.3459 6.01179 29.7085C6.02528 29.9303 6.12592 30.1586 6.29401 30.3941C6.68388 30.9316 7.57724 31.6169 8.67241 32.1277C9.48535 32.5038 10.7284 32.7593 11.864 32.8265C12.5291 32.8599 13.1675 32.833 13.6847 32.7323C13.8123 32.7053 13.9399 32.6719 14.0543 32.6384C14.1482 33.4916 14.2896 34.6874 14.444 35.8969C14.6323 37.4154 14.8406 38.9204 14.9814 39.7401C15.2234 41.1308 15.6263 42.1522 16.3723 42.9247C17.1183 43.6972 18.1595 44.1877 19.6645 44.5104C21.5457 44.9135 22.7822 44.4702 23.6151 43.7711C24.4348 43.0791 24.8244 42.1585 25.0732 41.5403C25.3217 40.9292 25.4833 39.4981 25.5705 37.6637C25.6306 36.3268 25.6576 34.7478 25.6444 33.1082C26.491 33.8742 27.4246 34.2503 28.3117 34.4052C29.4871 34.6064 30.5623 34.4116 31.2071 34.2503C31.6777 34.1294 32.2623 33.8672 32.605 33.5447C32.8065 33.3564 32.9409 33.1352 32.9814 32.8799C33.0213 32.5839 32.9342 32.2952 32.6587 32.04C32.3967 31.7912 31.9129 31.5697 31.107 31.4016C29.3195 31.0322 29.1584 30.8307 28.6479 30.1788C28.5166 30.0132 28.3799 29.8518 28.2381 29.6951C28.2446 29.6681 28.2446 29.6414 28.2446 29.6144C28.4356 29.6091 28.6262 29.5934 28.8155 29.5672C29.4225 29.4802 30.0094 29.2869 30.5493 28.9962C31.0331 29.507 32.3295 30.9111 33.7476 32.6177C34.2511 33.2291 34.7756 33.6054 35.2993 33.7935C36.4077 34.1899 37.4227 33.7263 38.3498 32.7051C39.1558 31.8047 39.895 30.454 40.5601 28.8821C42.5624 24.1385 43.8791 17.3056 43.9668 15.6325C44.6518 1.87231 31.2209 6.31342 29.0845 7.10613C27.8145 6.23949 26.1748 5.70202 24.052 5.73549C23.024 5.74872 22.0632 5.87634 21.183 6.09164C20.7597 5.9775 20.1618 5.80941 20.1281 5.79593C20.0474 5.77569 19.9535 5.75572 19.8324 5.72874C18.2534 5.3591 15.3643 4.94277 12.4349 5.78918C10.5001 6.34688 8.55827 7.45554 6.96585 9.48453C5.91763 10.8282 6.00505 14.1474 7.09347 18.0845C8.02729 21.4714 9.69365 25.3683 11.9849 28.8486V28.8486Z" fill="#F6F0ED" fill-opacity="0.5"/>
</svg>
