<svg width="50" height="50" viewBox="0 0 50 50" fill="none" xmlns="http://www.w3.org/2000/svg">
<g clip-path="url(#clip0_34_284)">
<path d="M24.7859 0.0140991C12.1246 0.0140991 12.9152 5.52684 12.9152 5.52684L12.9293 11.2382H25.0117V12.9529H8.13029C8.13029 12.9529 0.0283203 12.0304 0.0283203 24.8568C0.0283203 37.6837 7.09992 37.2288 7.09992 37.2288H11.3202V31.2766C11.3202 31.2766 11.0927 24.1766 18.2789 24.1766H30.2626C30.2626 24.1766 36.9953 24.2859 36.9953 17.6435V6.66077C36.9953 6.66077 38.0179 0.0140991 24.7859 0.0140991ZM18.1237 3.85488C18.4092 3.85463 18.692 3.9109 18.9558 4.02048C19.2196 4.13006 19.4594 4.2908 19.6612 4.4935C19.8631 4.69621 20.0232 4.93689 20.1324 5.20178C20.2415 5.46667 20.2976 5.75057 20.2973 6.03724C20.2976 6.3239 20.2415 6.6078 20.1324 6.87269C20.0232 7.13758 19.8631 7.37827 19.6612 7.58097C19.4594 7.78367 19.2196 7.94441 18.9558 8.05399C18.692 8.16358 18.4092 8.21985 18.1237 8.21959C17.8382 8.21985 17.5554 8.16358 17.2916 8.05399C17.0277 7.94441 16.788 7.78367 16.5861 7.58097C16.3842 7.37827 16.2241 7.13758 16.115 6.87269C16.0059 6.6078 15.9498 6.3239 15.9501 6.03724C15.9498 5.75057 16.0059 5.46667 16.115 5.20178C16.2241 4.93689 16.3842 4.69621 16.5861 4.4935C16.788 4.2908 17.0277 4.13006 17.2916 4.02048C17.5554 3.9109 17.8382 3.85463 18.1237 3.85488V3.85488Z" fill="url(#paint0_linear_34_284)" fill-opacity="0.5"/>
<path d="M25.1459 49.8286C37.8072 49.8286 37.0166 44.3159 37.0166 44.3159L37.0026 38.6047H24.9199V36.89H41.8013C41.8013 36.89 49.9033 37.8126 49.9033 24.9857C49.9033 12.159 42.8317 12.6139 42.8317 12.6139H38.6114V18.5659C38.6114 18.5659 38.8389 25.6659 31.6527 25.6659H19.669C19.669 25.6659 12.9363 25.5567 12.9363 32.1992V43.1822C12.9363 43.1822 11.9139 49.8286 25.1457 49.8286H25.1459ZM31.8081 45.9882C31.5226 45.9885 31.2399 45.9322 30.976 45.8227C30.7122 45.7131 30.4725 45.5523 30.2706 45.3496C30.0687 45.1469 29.9086 44.9062 29.7995 44.6413C29.6903 44.3765 29.6343 44.0926 29.6345 43.8059C29.6342 43.5192 29.6903 43.2353 29.7994 42.9704C29.9085 42.7055 30.0686 42.4648 30.2705 42.262C30.4724 42.0593 30.7121 41.8986 30.976 41.789C31.2398 41.6794 31.5226 41.6231 31.8081 41.6233C32.0937 41.6231 32.3764 41.6794 32.6403 41.7889C32.9041 41.8985 33.1438 42.0593 33.3457 42.262C33.5476 42.4647 33.7077 42.7054 33.8168 42.9702C33.926 43.2351 33.982 43.519 33.9818 43.8057C33.982 44.0924 33.926 44.3763 33.8168 44.6412C33.7077 44.906 33.5476 45.1467 33.3457 45.3494C33.1438 45.5521 32.9041 45.7129 32.6403 45.8225C32.3764 45.932 32.0937 45.9883 31.8081 45.9881V45.9882Z" fill="url(#paint1_linear_34_284)" fill-opacity="0.5"/>
</g>
<defs>
<linearGradient id="paint0_linear_34_284" x1="4.82125" y1="4.49462" x2="29.6357" y2="28.9632" gradientUnits="userSpaceOnUse">
<stop stop-color="#41789F"/>
<stop offset="1" stop-color="#366994"/>
</linearGradient>
<linearGradient id="paint1_linear_34_284" x1="19.9925" y1="20.2708" x2="46.6354" y2="45.3564" gradientUnits="userSpaceOnUse">
<stop stop-color="#F9A620"/>
<stop offset="1" stop-color="#FFC331"/>
</linearGradient>
<clipPath id="clip0_34_284">
<rect width="50" height="50" fill="white"/>
</clipPath>
</defs>
</svg>
