<svg width="50" height="50" viewBox="0 0 50 50" fill="none" xmlns="http://www.w3.org/2000/svg">
<path d="M46.6679 19.983H30.9687C30.5902 19.9829 30.2274 19.8325 29.9598 19.5649C29.6922 19.2974 29.5417 18.9345 29.5415 18.5561V2.19446C29.5415 0.982841 28.5591 0 27.348 0H21.7438C20.5319 0 19.55 0.982841 19.55 2.19446V18.457C19.55 19.3007 18.8679 19.9865 18.0242 19.9902L12.8794 20.0148C12.0284 20.0194 11.3371 19.329 11.3388 18.4788L11.3707 2.19815C11.3735 0.984686 10.3906 0 9.17715 0H3.57752C2.36552 0 1.38379 0.982841 1.38379 2.19446V48.0092C1.38379 49.0856 2.25574 49.9576 3.33121 49.9576H46.6679C47.7443 49.9576 48.6163 49.0856 48.6163 48.0092V21.9314C48.6163 20.855 47.7443 19.983 46.6679 19.983V19.983ZM39.3059 37.1847C39.3059 38.5952 38.1624 39.7389 36.7519 39.7389H32.3229C30.9122 39.7389 29.7687 38.5952 29.7687 37.1847V32.7557C29.7687 31.345 30.9122 30.2015 32.3229 30.2015H36.7519C38.1624 30.2015 39.3059 31.345 39.3059 32.7557V37.1847V37.1847Z" fill="#FF6600" fill-opacity="0.5"/>
</svg>
