<svg width="50" height="50" viewBox="0 0 50 50" fill="none" xmlns="http://www.w3.org/2000/svg">
<g clip-path="url(#clip0_34_281)">
<path d="M0 25V0H50V50H0" fill="#007ACC" fill-opacity="0.5"/>
<path d="M10.9629 25.0875V27.125H17.4629V45.625H22.0754V27.125H28.5754V25.125C28.5754 24 28.5754 23.0875 28.5254 23.0625C28.5254 23.025 24.5629 23.0125 19.7504 23.0125L11.0004 23.05V25.1L10.9629 25.0875V25.0875ZM40.1754 23C41.4504 23.3 42.4254 23.875 43.3004 24.7875C43.7629 25.2875 44.4504 26.1625 44.5004 26.3875C44.5004 26.4625 42.3379 27.925 41.0254 28.7375C40.9754 28.775 40.7754 28.5625 40.5754 28.2375C39.9254 27.3125 39.2629 26.9125 38.2254 26.8375C36.7254 26.7375 35.7254 27.525 35.7254 28.8375C35.7254 29.2375 35.8004 29.4625 35.9504 29.7875C36.2879 30.475 36.9129 30.8875 38.8504 31.7375C42.4254 33.275 43.9754 34.2875 44.9129 35.7375C45.9754 37.3625 46.2129 39.9125 45.5004 41.825C44.7004 43.9125 42.7504 45.325 39.9629 45.7875C39.0879 45.9375 37.0879 45.9125 36.1504 45.75C34.1504 45.375 32.2379 44.375 31.0629 43.0875C30.6004 42.5875 29.7129 41.25 29.7629 41.1625L30.2379 40.8625L32.1129 39.775L33.5254 38.95L33.8504 39.3875C34.2629 40.0375 35.1879 40.9125 35.7254 41.2125C37.3504 42.05 39.5254 41.9375 40.6004 40.9625C41.0629 40.5375 41.2629 40.0875 41.2629 39.4625C41.2629 38.8875 41.1754 38.625 40.8879 38.1875C40.4879 37.6375 39.6879 37.1875 37.4379 36.1875C34.8504 35.0875 33.7504 34.3875 32.7254 33.3125C32.1379 32.6625 31.6004 31.65 31.3504 30.8125C31.1629 30.0875 31.1004 28.3125 31.2754 27.6C31.8129 25.1 33.7004 23.35 36.4004 22.85C37.2754 22.675 39.3379 22.75 40.2004 22.975L40.1754 23V23Z" fill="white" fill-opacity="0.5"/>
</g>
<defs>
<clipPath id="clip0_34_281">
<rect width="50" height="50" fill="white"/>
</clipPath>
</defs>
</svg>
